<?xml version="1.0" encoding="UTF-8"?><svg id="Layer_2" xmlns="http://www.w3.org/2000/svg" viewBox="0 0 752.77 209.28"><defs><style>.cls-1{fill:#fff;}.cls-2{fill:#3483ec;}</style></defs><g id="Layer_1-2"><g id="Simple_Logo"><rect class="cls-2" x="8.5" y="8.5" width="735.77" height="192.27"/><path d="m735.77,17v175.28H17V17h718.77m17-17H0v209.28h752.77V0h0Z"/><g id="v5_copy"><path id="C" class="cls-1" d="m159.36,141.67v-1.4h-68.91v-71.27h68.91s0-1.4,0-1.4c0-9.79,3.3-18.67,9.55-25.85h-79.68c-7.22,0-13.34,2.5-18.34,7.51-5.01,5.01-7.51,11.12-7.51,18.34v74.06c0,7.22,2.5,13.34,7.51,18.34,5.01,5.01,11.12,7.51,18.34,7.51h79.68c-6.25-7.18-9.54-16.06-9.54-25.85Z"/><g id="O"><path class="cls-1" d="m198.63,41.75h60.06c7.1,0,13.19,2.53,18.25,7.6,5.07,5.07,7.6,11.15,7.6,18.25v74.06c0,7.1-2.53,13.19-7.6,18.25-5.07,5.07-11.15,7.6-18.25,7.6h-60.06c-7.22,0-13.33-2.5-18.34-7.51-5.01-5.01-7.51-11.12-7.51-18.34v-74.06c0-7.22,2.5-13.33,7.51-18.34,5.01-5.01,11.12-7.51,18.34-7.51Zm1.22,27.25v71.27h57.26v-71.27h-57.26Z"/></g><path id="M" class="cls-1" d="m368.91,92.59l42.45-50.83h28.12v125.77h-27.25v-84.37l-43.32,51.7-43.49-51.53v84.19h-27.08V41.76h27.95l42.62,50.83Z"/><g id="_2nd_M"><polygon class="cls-1" points="525.36 41.76 482.91 92.59 453.1 57.03 453.1 99.54 482.91 134.86 526.23 83.15 526.23 167.52 553.48 167.52 553.48 41.76 525.36 41.76"/><polygon class="cls-1" points="439.48 41.76 412.34 41.76 412.34 167.52 439.42 167.52 439.42 83.33 439.48 83.4 439.48 41.76"/></g><path id="I" class="cls-1" d="m574.41,167.52v-84.89h27.25v84.89h-27.25Z"/><path id="T" class="cls-1" d="m567.11,41.76h122.3v27.25h-39.89v98.52h-27.25v-98.52h-55.16v-27.25Z"/></g></g></g></svg>