<?xml version="1.0" encoding="UTF-8"?><svg id="Layer_2" xmlns="http://www.w3.org/2000/svg" viewBox="0 0 626.04 125.77"><defs><style>.cls-1{fill:#fff;}</style></defs><g id="Layer_1-2"><g id="v5_copy"><path id="C" class="cls-1" d="m95.99,99.91v-1.4H27.08V27.25h68.91s0-1.4,0-1.4C95.99,16.06,99.29,7.19,105.54,0H25.85c-7.22,0-13.34,2.5-18.34,7.51C2.5,12.52,0,18.63,0,25.85v74.06c0,7.22,2.5,13.34,7.51,18.34,5.01,5.01,11.12,7.51,18.34,7.51h79.68c-6.25-7.18-9.54-16.06-9.54-25.85Z"/><g id="O"><path class="cls-1" d="m135.27,0h60.06c7.1,0,13.19,2.53,18.25,7.6,5.07,5.07,7.6,11.15,7.6,18.25v74.06c0,7.1-2.53,13.19-7.6,18.25-5.07,5.07-11.15,7.6-18.25,7.6h-60.06c-7.22,0-13.33-2.5-18.34-7.51-5.01-5.01-7.51-11.12-7.51-18.34V25.85c0-7.22,2.5-13.33,7.51-18.34C121.93,2.51,128.04,0,135.27,0Zm1.22,27.25v71.27h57.26V27.25h-57.26Z"/></g><path id="M" class="cls-1" d="m305.54,50.83L347.99,0h28.12v125.77h-27.25V41.4l-43.32,51.7-43.49-51.53v84.19h-27.08V0h27.95l42.62,50.83Z"/><g id="_2nd_M"><polygon class="cls-1" points="461.99 0 419.55 50.83 389.74 15.28 389.74 57.78 419.55 93.1 462.87 41.4 462.87 125.77 490.12 125.77 490.12 0 461.99 0"/><polygon class="cls-1" points="376.11 0 348.98 0 348.98 125.77 376.05 125.77 376.05 41.57 376.11 41.64 376.11 0"/></g><path id="I" class="cls-1" d="m511.05,125.77V40.87h27.25v84.89h-27.25Z"/><path id="T" class="cls-1" d="m503.74,0h122.3v27.25h-39.89v98.52h-27.25V27.25h-55.16V0Z"/></g></g></svg>