<?xml version="1.0" encoding="UTF-8"?><svg id="Layer_2" xmlns="http://www.w3.org/2000/svg" viewBox="0 0 907.57 209.28"><defs><style>.cls-1{fill:#fff;}.cls-2{fill:#3483ec;}</style></defs><g id="Layer_1-2"><g id="Simple_Logo"><g><rect class="cls-2" x="8.5" y="8.5" width="890.57" height="192.27"/><path d="m890.57,17v175.28H17V17h873.57m17-17H0v209.28h907.57V0h0Z"/></g><g id="COMMIT"><path class="cls-1" d="m184.51,71.1h-98.34v71.27h98.34v27.25h-99.56c-7.22,0-13.34-2.5-18.34-7.51-5.01-5.01-7.51-11.12-7.51-18.34v-74.06c0-7.22,2.5-13.33,7.51-18.34,5.01-5.01,11.12-7.51,18.34-7.51h99.56v27.25Z"/><path class="cls-1" d="m233.42,43.86h74.06c7.1,0,13.19,2.53,18.25,7.6,5.07,5.07,7.6,11.15,7.6,18.25v74.06c0,7.1-2.53,13.19-7.6,18.25-5.07,5.07-11.15,7.6-18.25,7.6h-74.06c-7.22,0-13.33-2.5-18.34-7.51-5.01-5.01-7.51-11.12-7.51-18.34v-74.06c0-7.22,2.5-13.33,7.51-18.34,5.01-5.01,11.12-7.51,18.34-7.51Zm1.22,27.25v71.27h71.27v-71.27h-71.27Z"/><path class="cls-1" d="m428.35,94.69l42.45-50.83h28.12v125.77h-27.25v-84.37l-43.32,51.7-43.49-51.53v84.19h-27.08V43.86h27.95l42.62,50.83Z"/><path class="cls-1" d="m595.69,94.69l42.45-50.83h28.12v125.77h-27.25v-84.37l-43.32,51.7-43.49-51.53v84.19h-27.08V43.86h27.95l42.62,50.83Z"/><path class="cls-1" d="m692.63,169.62V43.86h27.25v125.77h-27.25Z"/><path class="cls-1" d="m733.33,43.86h125.77v27.25h-49.26v98.52h-27.25v-98.52h-49.26v-27.25Z"/></g></g></g></svg>