<?xml version="1.0" encoding="UTF-8"?><svg id="Layer_2" xmlns="http://www.w3.org/2000/svg" viewBox="0 0 800 125.77"><defs><style>.cls-1{fill:#fff;}</style></defs><g id="Layer_1-2"><g id="Simple_Logo"><g id="COMMIT"><path class="cls-1" d="m125.42,27.25H27.08v71.27h98.34v27.25H25.85c-7.22,0-13.34-2.5-18.34-7.51-5.01-5.01-7.51-11.12-7.51-18.34V25.85c0-7.22,2.5-13.33,7.51-18.34C12.52,2.5,18.63,0,25.85,0h99.56v27.25Z"/><path class="cls-1" d="m174.32,0h74.06c7.1,0,13.19,2.53,18.25,7.6,5.07,5.07,7.6,11.15,7.6,18.25v74.06c0,7.1-2.53,13.19-7.6,18.25-5.07,5.07-11.15,7.6-18.25,7.6h-74.06c-7.22,0-13.33-2.5-18.34-7.51-5.01-5.01-7.51-11.12-7.51-18.34V25.85c0-7.22,2.5-13.33,7.51-18.34,5.01-5.01,11.12-7.51,18.34-7.51Zm1.22,27.25v71.27h71.27V27.25h-71.27Z"/><path class="cls-1" d="m369.26,50.83L411.71,0h28.12v125.77h-27.25V41.4l-43.32,51.7-43.49-51.53v84.19h-27.08V0h27.95l42.62,50.83Z"/><path class="cls-1" d="m536.6,50.83L579.04,0h28.12v125.77h-27.25V41.4l-43.32,51.7-43.49-51.53v84.19h-27.08V0h27.95l42.62,50.83Z"/><path class="cls-1" d="m633.54,125.77V0h27.25v125.77h-27.25Z"/><path class="cls-1" d="m674.23,0h125.77v27.25h-49.26v98.52h-27.25V27.25h-49.26V0Z"/></g></g></g></svg>