<?xml version="1.0" encoding="UTF-8"?><svg id="Layer_2" xmlns="http://www.w3.org/2000/svg" viewBox="0 0 1062.7 1151.78"><defs><style>.cls-1,.cls-2{fill:#fff;}.cls-3,.cls-4{fill:#3483ec;}.cls-4,.cls-5,.cls-6,.cls-7,.cls-8,.cls-2,.cls-9,.cls-10{fill-rule:evenodd;}.cls-5{fill:#4d4d4d;}.cls-6{fill:#999;}.cls-7{fill:#333;}.cls-8{fill:#666;}.cls-9{fill:#fffdfc;}</style></defs><g id="Layer_1-2"><g id="Full_Logo"><polygon class="cls-9" points="531.35 1151.78 0 317.1 1062.7 317.1 531.35 1151.78"/><polygon class="cls-10" points="531.35 1132.73 18.64 327.33 1044.05 327.33 531.35 1132.73"/><polygon class="cls-4" points="531.35 1089.85 60.59 350.35 1002.1 350.35 531.35 1089.85"/><polygon class="cls-2" points="658.25 852.39 748.08 711.28 964.81 370.82 531.35 370.82 97.88 370.82 314.62 711.28 404.44 852.39 658.25 852.39"/><g><path class="cls-9" d="m286.01,639.78c2.26-17.83-4.02-25.83,7.93-41.12,5.15-6.59,11.25-12.35,16.38-18.93,4.53-5.81,7.75-12.88,10.21-19.79,1.41-3.96,2.48-8.03,3.29-12.15.34-1.75.64-3.52.87-5.29.29-10.87,2.78-21.32,3.59-32.1.5-6.7-.17-13.58-.62-20.36l-10.95,4.41,9.64-37.79c2.24-8.79,6.45-16.01,9.72-24.3,1.22-3.09,2.31-6.25,3.08-9.49.25-1.03.44-2.08.59-3.13-4.64-7.13-9.32-14.24-13.53-21.64-3.72-6.55-6.7-13.43-8.18-20.85-.53-2.65-.85-5.34-.93-8.04l-.66-1.61c-.3-.73-.6-1.46-.88-2.19l-.38-.99-1.91-40.07.53-1.32c.22-.55.46-1.08.71-1.61-.58-1.52-1.2-3.02-1.91-4.47-2.81-5.76-6.25-11.2-9.12-16.94-3.33-6.65-6.23-13.44-7.91-20.72-.91-3.95-1.39-8.01-1.45-12.06-.01-.85-.02-1.69,0-2.54l-.05-.62c-.35-4.44.34-8.02.81-12.34.4-3.64.79-7.28,1.1-10.93.59-6.87.86-13.76.98-20.66.25-14.44-.3-28.88-.67-43.31-.39-15.18-.54-30.39.36-45.56.7-11.82,2.33-23.56,4.2-35.25,2.64-16.48,5.97-32.87,11.26-48.73,2.73-8.19,6.03-16.19,10.31-23.69,2.07-3.63,4.46-7.06,7.1-10.3,1.48-1.83,3.11-3.54,4.81-5.16,2.01-1.92,4.28-3.48,6.8-4.65l7.5-3.49,7.41,2.25c5.92,1.8,11.26,4.67,16.53,7.85,5.02,3.03,9.84,6.4,14.47,9.99,8.93,6.91,17.14,14.71,24.67,23.11,14.94,16.66,27.01,35.66,37.28,55.49,8.09,15.61,15.04,31.79,21.36,48.19,3.07,7.98,5.99,16.01,8.84,24.07,2.63,7.44,5.31,14.86,7.5,22.45.89.93,1.76,1.88,2.61,2.85,1.7,1.95,3.29,4,4.74,6.15.41-.03.83-.06,1.24-.1,3.63-.29,7.22-.59,10.87-.5,1.5.04,2.99.14,4.47.3v-6.75l20.74,11.08,20.75-11.08v6.75c1.48-.16,2.97-.27,4.47-.3,3.64-.09,7.24.21,10.87.5.41.03.83.07,1.24.1,1.44-2.15,3.04-4.2,4.74-6.15.85-.97,1.72-1.92,2.61-2.85,2.19-7.58,4.88-15,7.5-22.45,2.85-8.06,5.76-16.1,8.84-24.07,6.32-16.4,13.27-32.58,21.36-48.19,10.27-19.82,22.34-38.83,37.28-55.49,7.54-8.4,15.75-16.2,24.67-23.11,4.64-3.59,9.45-6.95,14.47-9.99,5.27-3.18,10.61-6.05,16.53-7.85l7.41-2.25,7.5,3.49c2.52,1.17,4.79,2.73,6.8,4.65,1.7,1.62,3.32,3.33,4.81,5.16,2.63,3.24,5.03,6.68,7.1,10.3,4.28,7.51,7.58,15.51,10.31,23.69,5.29,15.85,8.61,32.25,11.26,48.73,1.88,11.69,3.5,23.42,4.21,35.25.9,15.17.75,30.38.36,45.56-.37,14.43-.92,28.87-.67,43.31.12,6.89.39,13.79.98,20.66.32,3.65.71,7.29,1.1,10.93.47,4.32,1.16,7.9.81,12.34l-.05.62c.02.85.01,1.7,0,2.54-.06,4.06-.54,8.11-1.45,12.06-1.67,7.28-4.57,14.06-7.91,20.72-2.87,5.74-6.31,11.18-9.12,16.94-.71,1.45-1.33,2.96-1.91,4.47.25.53.49,1.07.71,1.61l.53,1.32-1.91,40.07-.38.99c-.28.74-.58,1.47-.88,2.2l-.66,1.61c-.09,2.7-.4,5.39-.93,8.04-1.48,7.42-4.46,14.3-8.18,20.85-4.21,7.4-8.89,14.5-13.53,21.64.15,1.05.34,2.1.59,3.13.77,3.24,1.86,6.4,3.08,9.49,3.28,8.29,7.48,15.51,9.72,24.3l9.64,37.79-10.95-4.41c-.44,6.77-1.12,13.66-.62,20.35.81,10.78,3.3,21.23,3.59,32.1.23,1.77.53,3.54.87,5.29.81,4.12,1.89,8.19,3.29,12.15,2.45,6.91,5.67,13.98,10.2,19.79,5.13,6.57,11.23,12.33,16.38,18.93,11.95,15.3,5.67,23.29,7.93,41.12h-490.68Z"/><path class="cls-10" d="m777.47,645.97c3.6,9.15,5.6,18.83,6.64,28.6,1.98,18.5.86,37.29-2.87,55.5l-6.96,33.99-3.35-5.75s-.02.07-.04.11l-16.79,103.12h-445.51l-16.79-103.12s-.02-.07-.04-.11l-3.35,5.75-6.96-33.99c-3.73-18.22-4.85-37-2.87-55.5,1.04-9.76,3.04-19.44,6.64-28.6l2.4-18.92c1.18-9.34,5.76-17.09,11.46-24.38,5.16-6.6,11.26-12.37,16.39-18.93,4.97-6.37,8.52-14.04,11.21-21.62,1.51-4.26,2.68-8.64,3.54-13.08.39-2,.72-4.02.98-6.05h0c.25-10.93,2.77-21.34,3.58-32.11.63-8.43-.52-17.23-.85-25.67-.06-1.56-.11-3.12-.12-4.67l-7.59,3.06,6.46-25.32c2.18-8.54,6.3-15.5,9.47-23.52,1.34-3.38,2.52-6.84,3.36-10.38.39-1.66.67-3.34.87-5.04.04-.39.09-.77.13-1.16-4.98-7.7-10.08-15.31-14.62-23.29-3.38-5.94-6.11-12.18-7.46-18.91-.53-2.62-.82-5.36-.83-8.1l-1.13-2.74c-.28-.69-.56-1.38-.83-2.07l-1.79-37.6c.44-1.09.95-2.08,1.44-3.13.09-.2.19-.41.29-.61-.95-2.6-1.93-5.19-3.12-7.64-2.82-5.77-6.27-11.24-9.16-17-3.1-6.19-5.82-12.49-7.38-19.26-.81-3.51-1.23-7.1-1.28-10.69-.01-.89-.02-1.76,0-2.64l-.08-.95c-.32-4.07.37-7.21.79-11.11.4-3.69.8-7.38,1.12-11.08.61-7.02.88-14.06,1-21.11.25-14.53-.3-29.06-.67-43.58-.39-15-.54-30.02.35-45,.69-11.61,2.29-23.12,4.13-34.6,2.59-16.13,5.83-32.18,11.01-47.7,2.6-7.78,5.72-15.39,9.79-22.53,1.89-3.32,4.09-6.46,6.49-9.42,1.31-1.61,2.74-3.12,4.25-4.55,1.5-1.43,3.17-2.58,5.05-3.46l5.24-2.44,5.02,1.52c5.39,1.64,10.26,4.3,15.05,7.19,4.81,2.9,9.41,6.13,13.85,9.56,8.62,6.67,16.54,14.21,23.81,22.31,14.57,16.24,26.33,34.8,36.35,54.13,7.98,15.4,14.83,31.35,21.06,47.53,3.05,7.92,5.95,15.9,8.77,23.9,2.77,7.84,5.6,15.64,7.83,23.65,1.21,1.21,2.38,2.46,3.51,3.76,2.35,2.69,4.45,5.57,6.18,8.64,1.75-.11,3.49-.24,5.23-.38,3.41-.27,6.76-.57,10.19-.48,3.8.09,7.47.67,11.15,1.59v-3.68l14.22,7.6,14.22-7.6v3.68c3.67-.92,7.34-1.49,11.15-1.59,3.42-.08,6.78.21,10.19.48,1.74.14,3.49.27,5.23.38,1.74-3.08,3.84-5.95,6.18-8.64,1.13-1.29,2.3-2.54,3.51-3.76,2.24-8.01,5.07-15.82,7.83-23.65,2.83-8,5.72-15.98,8.77-23.9,6.23-16.18,13.08-32.13,21.06-47.53,10.01-19.33,21.78-37.89,36.35-54.13,7.27-8.11,15.2-15.64,23.81-22.31,4.44-3.44,9.05-6.66,13.85-9.56,4.79-2.9,9.66-5.56,15.05-7.19l5.02-1.52,5.24,2.44c1.88.87,3.55,2.02,5.05,3.45,1.5,1.44,2.94,2.94,4.25,4.55,2.41,2.97,4.6,6.1,6.49,9.42,4.07,7.13,7.2,14.75,9.79,22.53,5.18,15.52,8.42,31.57,11.01,47.7,1.84,11.48,3.45,22.99,4.13,34.6.89,14.99.73,30,.35,45-.37,14.52-.92,29.06-.67,43.58.12,7.04.4,14.09,1,21.11.32,3.7.71,7.39,1.12,11.08.43,3.9,1.12,7.05.79,11.11l-.08.95c.02.88.02,1.75,0,2.64-.05,3.6-.48,7.19-1.28,10.69-1.56,6.77-4.28,13.07-7.38,19.26-2.88,5.76-6.34,11.23-9.15,17-1.19,2.44-2.17,5.04-3.12,7.63.1.2.19.4.29.61.49,1.05,1.01,2.05,1.44,3.13l-1.79,37.59c-.27.69-.55,1.38-.83,2.07l-1.13,2.74c0,2.74-.3,5.48-.83,8.1-1.35,6.73-4.08,12.97-7.46,18.91-4.54,7.98-9.63,15.59-14.62,23.29.04.39.08.78.13,1.16.2,1.69.48,3.38.87,5.04.84,3.54,2.02,7,3.36,10.38,3.17,8.02,7.29,14.97,9.47,23.52l6.46,25.32-7.59-3.06c-.02,1.56-.06,3.11-.12,4.67-.33,8.45-1.48,17.24-.85,25.67.81,10.78,3.33,21.18,3.58,32.11h0c.26,2.03.59,4.05.98,6.05.87,4.44,2.03,8.82,3.54,13.08,2.69,7.58,6.24,15.25,11.21,21.62,5.12,6.56,11.23,12.33,16.38,18.93,5.69,7.29,10.28,15.04,11.46,24.38l2.4,18.92Z"/><path class="cls-5" d="m728.81,332.95l1.01-.44c.09-.04.17-.07.26-.11l-.02-2.57.5.58c-.36-.89-.81-1.74-1.15-2.46-.61-1.3-1.23-2.63-2.07-3.8l-1.11-.49.52-1.32c1.86-4.7,3.36-9.51,5.58-14.06,2.84-5.83,6.31-11.33,9.22-17.12,2.61-5.21,5.01-10.6,6.32-16.3.6-2.59.91-5.25.95-7.91.02-1.18.03-2.36-.08-3.53l-.06-.59.25-.32c.22-2.81-.45-5.84-.76-8.63-.41-3.79-.82-7.57-1.14-11.37-.63-7.32-.93-14.67-1.05-22.02-.25-14.72.3-29.44.67-44.15.38-14.62.54-29.27-.33-43.88-.66-11.16-2.22-22.25-3.99-33.28-2.47-15.4-5.55-30.79-10.49-45.6-2.32-6.95-5.1-13.79-8.73-20.16-1.54-2.69-3.32-5.23-5.27-7.64-.96-1.18-2.01-2.27-3.11-3.32-.46-.44-.92-.76-1.49-1.03l-.65-.3-.17.05c-4.22,1.28-8.29,3.58-12.05,5.85-4.37,2.64-8.56,5.58-12.6,8.7-7.98,6.18-15.32,13.17-22.06,20.68-13.8,15.38-24.96,33.07-34.45,51.38-7.75,14.96-14.41,30.48-20.46,46.2-3,7.8-5.86,15.67-8.64,23.55-2.7,7.64-5.48,15.27-7.64,23.08l2.18.58-2.13,1.82c-.14.12-.28.24-.42.37-2.07,1.83-4.02,3.77-5.83,5.85-3.17,3.64-5.85,7.77-7.16,12.46l-.31,1.1-1.15-.03c-4.64-.11-9.22-.39-13.85-.77-2.92-.23-5.89-.52-8.81-.45-3.02.07-5.86.57-8.78,1.33-4.7,1.23-9.41,2.98-13.94,4.71l-2,.76v-.05l-.98.52-.98-.52v.05l-2-.76c-4.53-1.73-9.24-3.48-13.94-4.71-2.92-.76-5.75-1.26-8.78-1.33-2.92-.07-5.9.21-8.81.45-4.62.37-9.21.65-13.85.77l-1.14.03-.31-1.1c-1.31-4.69-3.99-8.82-7.16-12.46-1.81-2.08-3.76-4.03-5.83-5.85-.14-.12-.28-.25-.42-.37l-2.13-1.82,2.18-.58c-2.16-7.81-4.94-15.44-7.64-23.08-2.78-7.89-5.64-15.75-8.64-23.55-6.05-15.72-12.71-31.24-20.46-46.2-9.49-18.31-20.65-36-34.45-51.38-6.74-7.51-14.08-14.5-22.06-20.68-4.04-3.12-8.23-6.06-12.6-8.7-3.76-2.27-7.83-4.57-12.05-5.85l-.17-.05-.65.3c-.57.27-1.04.59-1.49,1.03-1.1,1.05-2.15,2.14-3.11,3.32-1.95,2.41-3.74,4.95-5.27,7.64-3.63,6.37-6.42,13.21-8.73,20.16-4.94,14.82-8.02,30.21-10.49,45.6-1.77,11.04-3.33,22.12-3.99,33.28-.87,14.61-.7,29.26-.33,43.88.38,14.71.93,29.43.67,44.15-.13,7.35-.42,14.7-1.05,22.02-.33,3.8-.73,7.58-1.15,11.37-.3,2.79-.98,5.83-.76,8.63l.25.32-.06.59c-.12,1.17-.1,2.35-.08,3.53.04,2.66.35,5.32.95,7.91,1.31,5.7,3.71,11.09,6.32,16.3,2.9,5.8,6.37,11.29,9.22,17.12,2.22,4.55,3.73,9.37,5.58,14.06l.52,1.32-1.11.49c-.84,1.17-1.46,2.5-2.07,3.8-.34.72-.79,1.57-1.15,2.46l.5-.58-.02,2.57c.09.04.17.08.26.11l1.01.44c.11,0,.2,0,.25.01.36.03.72.07,1.09.12l2.62.35-1.67,2.04c-3.87,4.73-5.07,10.21-4.07,16.18.37,2.21,1.01,4.34,1.81,6.43.26.68.53,1.35.81,2.02.19-.22.38-.43.58-.65.11-.12.22-.24.33-.35l4.91-4.82-2.51,6.41c-1.51,3.85-1.42,8.69-.62,12.7,1.06,5.31,3.32,10.28,5.98,14.96,5.19,9.13,11.16,17.79,16.79,26.65l.4.63-.27.7c-.22.56-.42.79-.47,1.41-.09,1.05-.2,2.1-.32,3.14-.26,2.2-.62,4.39-1.13,6.55-.99,4.17-2.36,8.22-3.93,12.2-2.88,7.29-7.01,14.29-8.95,21.92.71-.28,1.44-.5,2.14-.72.51-.16,1.03-.26,1.54-.4l3.5-.97-1.84,3.13c-.71,1.21-1.42,2.43-2.27,3.54l.07.26-.23.49c-.73,1.57-.89,3.75-1.06,5.46-.42,4.1-.36,8.24-.19,12.35.36,9.06,1.51,18.11.82,27.19-.79,10.51-3.31,20.86-3.55,31.41,0,.19,0,.38,0,.56v.08s-.01.08-.01.08c-.31,2.54-.71,5.07-1.21,7.58-.99,5.08-2.33,10.09-4.06,14.96-3.17,8.95-7.39,17.82-13.25,25.33-5.14,6.59-11.25,12.35-16.39,18.94-4.16,5.33-7.9,11.15-8.76,17.89,1.34-.46,2.96-.72,4.29-.71,1.65.01,3.16.44,4.78.6l3.54.36-2.77,2.24c-5.83,4.73-10.07,12.17-12.84,19.07-3.3,8.19-5.07,16.94-6.01,25.69-1.83,17.15-.78,34.55,2.68,51.44.45-.78.87-1.56,1.24-2.39.11-.25.21-.5.3-.76l2.58-7.39.28,7.82c.27,7.34,1.34,14.65,3.19,21.76.75,2.9,1.63,5.76,2.62,8.59l.04.12,15.16,93.13h422.99l15.16-93.13.04-.12c.99-2.83,1.87-5.69,2.62-8.59,1.85-7.11,2.93-14.42,3.19-21.76l.28-7.82,2.58,7.39c.09.26.19.51.3.76.37.83.79,1.61,1.24,2.39,3.46-16.89,4.51-34.29,2.68-51.44-.94-8.75-2.71-17.51-6.01-25.69-2.78-6.89-7.01-14.34-12.84-19.07l-2.77-2.24,3.54-.36c1.61-.16,3.13-.59,4.78-.6,1.33-.01,2.95.25,4.29.71-.86-6.75-4.6-12.57-8.76-17.89-5.14-6.58-11.25-12.34-16.39-18.94-5.86-7.51-10.07-16.39-13.25-25.33-1.73-4.87-3.07-9.89-4.06-14.96-.49-2.51-.9-5.04-1.21-7.58v-.08s-.01-.08-.01-.08c0-.19,0-.38,0-.56-.24-10.55-2.76-20.9-3.55-31.41-.68-9.08.47-18.13.83-27.19.16-4.11.23-8.25-.19-12.35-.18-1.71-.33-3.89-1.06-5.46l-.23-.49.07-.26c-.85-1.12-1.56-2.33-2.27-3.54l-1.84-3.13,3.5.97c.51.14,1.03.25,1.54.4.7.21,1.44.43,2.14.72-1.95-7.63-6.07-14.63-8.95-21.92-1.57-3.98-2.94-8.03-3.93-12.2-.51-2.16-.88-4.35-1.13-6.55-.12-1.05-.23-2.09-.32-3.14-.05-.62-.25-.85-.47-1.41l-.28-.7.4-.63c5.63-8.86,11.6-17.52,16.79-26.65,2.66-4.69,4.92-9.65,5.98-14.96.8-4.01.89-8.85-.62-12.7l-2.51-6.41,4.91,4.82c.12.11.23.23.33.35.19.22.39.43.58.65.28-.67.55-1.34.81-2.02.8-2.09,1.44-4.22,1.81-6.43,1-5.96-.2-11.44-4.07-16.18l-1.67-2.04,2.62-.35c.36-.05.72-.09,1.08-.12.06,0,.15,0,.25-.01Z"/><path class="cls-7" d="m468.59,396.51l3.99,4.42s8.45,3.95,6.91,3.6c-1.53-.36-14.03-5.11-15.43-5.11s-7.24.43-15.85,0c-18.05-.89-30.64-13.02-37.31-22.21,0,0-6.46-11.64-6.17-19.52.03-.72-12.36-10.36-11.28-11.48,2.03-2.11,18.15,4.15,18.2,3.72.39-3.19,41.05,32.89,41.05,32.89l12.11,7.44,3.77,6.25h0Zm-43.11,180.72c-4.96-2.59-14.66-7.76-14.66-7.76l-19.5-22.98,28.99,59.42,3.88-11s9.21,13.18,14.7,20.06l9.54,52.73,8.63-18.11,43.99,64.7c0,11.27,20.61,2.05,21.56,12.5,2.09,22.9-5.76,55.87-13.65,88.13-15.89,7.52-27.47-15.15-41.2-22.72l-1.73,4.74c-14.81-19.26-21.42-45.86-44.42-57.79l-1.29,5.18c-22.82-13.77-15.46-53.84-45.18-72.36l-5.28,74.94-47.01-43.13-2.59,16.39-27.23-42.47-1.49.6c-1.5,16.4-.4,33,2.91,49.12.45-.78.87-1.56,1.24-2.39.11-.25.21-.5.3-.76l2.58-7.39.28,7.82c.26,7.34,1.34,14.65,3.19,21.76.75,2.9,1.63,5.76,2.62,8.59l.04.12,15.16,93.13h172.35c4.03-3.63,7.75-6.98,11.1-10.01-.79,3.38-1.55,6.72-2.27,10.01h241.81l15.16-93.13.04-.12c.99-2.83,1.87-5.69,2.62-8.59,1.85-7.11,2.93-14.42,3.19-21.76l.28-7.82,2.58,7.39c.09.26.19.51.3.76.37.83.79,1.61,1.25,2.39,3.46-16.89,4.51-34.29,2.68-51.44-.94-8.75-2.71-17.51-6.01-25.69-2.78-6.89-7.01-14.34-12.84-19.07l-2.77-2.24,3.54-.36c1.61-.17,3.13-.59,4.78-.6,1.33-.01,2.95.25,4.29.71-.86-6.75-4.6-12.57-8.76-17.89-5.14-6.58-11.25-12.34-16.39-18.94-5.86-7.51-10.07-16.39-13.25-25.33-1.73-4.87-3.07-9.89-4.06-14.96-.49-2.51-.9-5.04-1.21-7.58v-.08s-.01-.08-.01-.08c0-.19,0-.38,0-.56-.24-10.55-2.76-20.9-3.55-31.41-.68-9.08.47-18.13.82-27.19.16-4.11.23-8.25-.19-12.35-.18-1.71-.33-3.89-1.06-5.46l-.23-.49.07-.26c-.85-1.12-1.56-2.33-2.27-3.54l-1.84-3.13,3.5.97c.51.14,1.03.25,1.54.4.7.21,1.44.43,2.14.72-1.95-7.63-6.07-14.63-8.95-21.92-1.57-3.98-2.94-8.03-3.93-12.2-.51-2.16-.88-4.35-1.13-6.55-.12-1.05-.23-2.09-.32-3.14-.05-.62-.25-.85-.47-1.41l-.28-.7.4-.63c3.37-5.3,6.86-10.54,10.24-15.84l.11-.17.07-.12.03-.05.11-.17.11-.17.02-.03.08-.13.11-.17.07-.11.03-.05.11-.17.11-.17.02-.03.09-.14.11-.17.07-.11.04-.06.1-.17.11-.17.02-.03.09-.14.1-.17.07-.11.04-.06.1-.17.1-.17v-.02s.1-.14.1-.14l.1-.17.07-.11.04-.06.1-.17.1-.17v-.02s.1-.15.1-.15l.1-.17.06-.1.04-.06.1-.17.1-.17v-.02s.1-.15.1-.15l.1-.17.06-.1.04-.07.1-.17.1-.17v-.02s.1-.15.1-.15l.1-.17.06-.1.04-.07.1-.17.1-.17h0s.09-.17.09-.17l.1-.17.06-.1.04-.07.1-.17.1-.17h0s.09-.17.09-.17l.1-.17.06-.09.04-.08.1-.17.1-.17h0s.1-.17.1-.17l.1-.17.05-.09.05-.08.1-.17.1-.17h0s.1-.17.1-.17l.1-.17.05-.09.05-.08.1-.17.1-.17h0s.1-.17.1-.17l.1-.17.05-.09.05-.08.1-.17.1-.17c2.66-4.69,4.92-9.65,5.98-14.96.8-4.01.89-8.85-.62-12.7l-2.51-6.41,4.91,4.82c.12.11.23.23.33.35.19.22.39.43.58.65.28-.67.55-1.34.81-2.02.8-2.09,1.44-4.22,1.81-6.43,1-5.96-.2-11.44-4.07-16.18l-1.67-2.04,2.62-.35c.36-.05.72-.09,1.09-.12.05,0,.15,0,.25-.01l1.01-.44c.09-.04.17-.08.26-.11l-.02-2.57.5.58c-.36-.89-.81-1.74-1.15-2.46-.61-1.3-1.23-2.63-2.07-3.8l-1.11-.49.52-1.32c1.86-4.7,3.36-9.51,5.58-14.06,2.84-5.83,6.31-11.33,9.22-17.12,2.61-5.21,5.01-10.6,6.32-16.3.6-2.59.91-5.25.95-7.91.02-1.18.03-2.36-.08-3.53l-.06-.59.25-.32c.22-2.81-.45-5.84-.76-8.63-.41-3.79-.82-7.58-1.14-11.37l-.03-.34-.03-.34-.03-.34v-.17s-.03-.17-.03-.17h0v-.17s-.03-.17-.03-.17l-.03-.34-.03-.34-.03-.34v-.17s-.03-.17-.03-.17h0v-.17s-.02-.17-.02-.17v-.17s-.02-.17-.02-.17h0v-.17s-.02-.17-.02-.17v-.17s-.02-.17-.02-.17h0v-.17s-.02-.17-.02-.17l-.02-.34-.02-.34v-.17s-.02-.17-.02-.17h0v-.17s-.02-.17-.02-.17h0v-.17s-.02-.17-.02-.17h0v-.17s-.02-.17-.02-.17l-.02-.34-.02-.34-.02-.34v-.17s-.02-.17-.02-.17h0v-.17s-.02-.17-.02-.17h0l-.02-.34h0v-.17s-.02-.17-.02-.17h0v-.17s-.02-.17-.02-.17l-.02-.34-.02-.34-.02-.34-.02-.34c-.17-3.67-.27-7.34-.34-11.02-.25-14.72.3-29.44.67-44.15.38-14.62.54-29.27-.33-43.88-.66-11.16-2.22-22.25-3.99-33.29-1.57-9.75-3.37-19.5-5.75-29.1l1.92,107.34-39.09,27.73-34.07-.43s-22.06,61.85-26.51,50.17c-4.44-11.68-11.8-17.2-24.82-21.27l3.02-7.33c-8.38.12-17.41,4.13-25.15,12.01,1.49,23.57,33.59,34.11,17.41,52.6l.36.05-7.5,4.97-5.87,4.82.19.05c8.31,2.09,14.14-3.46,20.45-4.07,4.65-.45,9.85,4,15.77,1.11-4.69,5.1-12.92,4.92-20.38,8.12-10.08,4.31-19.98,11.58-29.55,16.25,1.85-6.1,3.77-15.28,9.66-16.06-3.75-.98-8.08,4.42-11.1,6.91l-12.13,17.34-4.1,44.64,21.78,26.09-9.81,7.12,22.56-8.78c2.33.09,7.61.33,14.85-.03,3.19-.16,6.21-.67,9.06-1.45,5.39.95,17.38,2.35,17.38,2.35l11.11-4.85,10.35-10.67c3.7-6.75,8.52-13.33,5.93-25.45-1.98-9.26-4.76,1.16-8.59,7.69-1.18,2.01-8.2,14.04-4.41,2.55,1.46-3.75,2.79-8.23,2.65-11.89-.02-.44,4.5-4.13,7.84-7.23l11.84-4.72c9.04,2.92,16.76,9.96,18.53,16.16.37,1.29-5.91,1.41-5.4,2.7.58,1.47,5.77.24,6.33,1.91,1.9,5.68,5.94,13.93,7.11,20.39l1.87,2.68-10.52,39.62.22,37.96-9.3-18.37c-12.93,2.01-21.17,6.11-27.57,18.79,4.81-1.1,8.99-.29,13.16,3.04-5.92.91-14.26,5.09-21.79,13.81-1.69,2.95-3.47,5.73-5.44,8.22l-15.06,50.85-2.38.16c-3.24,16.37-11.4,49.98-25.86,62.04-2.44-.35-8.6-7.98-11.65-9.14-14.79-.69-26.44,4.86-45.28-4.51.98-.95,2.41-1.92,4.01-2.96l39.05-16.18,21.71-30.34-23.97,24.88-26.21,7.87c3.63-8.6,13.48-12.54,20.22-18.82l5.34-3.45,5.88-12.11-5.18,6.66s-4.11.04-3.88.65,6.47-9.38,6.47-9.38l6.7-16.53-11.23,8.12-51.79-1.27v-.02h-.38s-.38,0-.38,0v.02l-51.79,1.27-11.23-8.12,6.7,16.53s6.24,9.99,6.47,9.38-3.88-.65-3.88-.65l-5.18-6.66,5.88,12.11,5.34,3.45c6.74,6.27,16.59,10.21,20.22,18.82l-26.21-7.87-23.97-24.88,21.71,30.34,39.05,16.18c1.16.76,2.25,1.48,3.12,2.18-11.28,4.23-24.48,2.76-37.94,3.99-7.71.7-15.51,6.06-23.07,4.31-7.76-1.99-16.16-17.49-19.4-20.21-2.34-1.97-1.3,5.57-1.28,11.86l-10.04-13.99h0Zm227.71-268.85c-15.56,1.87-45.14,22.93-57.25,40.11,9.31-29.26,44.21-42.49,57.25-40.11h0Zm-55.51,306.17l-19.87,65.67-65.84-36.87,9.31.07-.02.15,10.1-.08,10.09.08-.02-.15,36.33-.28,17.08-28.58h2.84Zm-126.14,6.15l-12.99-7.28,11.14.25-1.88.78,3.74,6.25Z"/><path class="cls-8" d="m382.06,372.24c7.29,13.71,15.22,29.14,29.19,34.01,2.04.86,4.29,1.51,6.67,2.05-10.06-8.99-19.05-18.62-24.37-36.02,11.78,17.42,22.75,26.53,35.61,33.97,12.85,3.62,21.58,1.26,32.09-3.37-5.18,8.17-13.2,8.43-21.02,9.26,6.28,3.12,12.21,3.62,14.15,12.22,2.21,5.27,3.16,10.49,3.29,15.68l11.57-16.43-6.55,17.39c2.4-1.86,5.05-3.34,8.06-4.34-4.49,3.75-7.8,7.27-10.72,11.41l-.14.36c2.97-2.77,6.34-4.94,10.32-6.27-4.74,3.96-8.16,7.65-11.19,12.09,3.05-2.92,6.52-5.21,10.65-6.59-4.74,3.96-8.16,7.66-11.19,12.09,3.05-2.93,6.53-5.21,10.66-6.59-4.74,3.96-8.16,7.66-11.19,12.09,3.05-2.93,6.53-5.21,10.66-6.59-4.74,3.96-8.16,7.65-11.19,12.09,3.05-2.92,6.53-5.21,10.66-6.59-4.88,4.08-8.36,7.87-11.46,12.49,1.63,16.83-5.49,28.68,4.88,50.48-14-13.25-8.58-25.75-12.87-38.62-.89,8.31-5.7,17.19-1.13,25.36-7.05-5.91-9.16-14.52-10.48-24.13-9.05-8.94-15.3-42.07-37.29-49.91,27.62,3.37,29.45,29.02,36.82,46.26-2.08-17.39-3.29-37.24-26.58-50.07-11.15-4.53-22.18-13.37-28.91-23.94,8.47,7.5,16.45,10.69,22.67,14.66,1.87,1.19,2.4.69,4.22,2.62-11.29-24.21-44.17-13.89-43-62.47l-2.64-.32,5.55-18.41,14.99-23.3c-.2-1.05-.33-1.87-.33-1.87l5.07-6.25,12.29-1.11c14.95-3.84,20.07,13.98,31.27,18.25-10.67.03-21.13-17.38-32.02-12.21l-2.49.85c-21.16,14-29.56,33.05-27,52.62l3.88-4.31c.08,7.92,1.98,12.28,5.4,14.7.24-4.21,1.19-8.7,3.14-13.27h0Zm48.03,299.35c23,25.73,11.29,60.45,69.01,77.2-36.37-23.58-37.81-60.53-69.01-77.2h0Zm67.73-235.41c-11.33,2.62-12.75,13.44-19.12,20.16,7.99-3.49,11.73-16.41,19.12-20.16h0Zm-21.41-214.36l-4.74-.85c-2.5-3.75-5.5-7.67-5.5-7.67l-10.11-14.21-11.07-43.81-11.05,4-9.49,52.62-24.58,62.54,6.47,9.49,11.75.32c.22-1.29-5.7,7.59-1.5-4.66,4.2-12.25,9.36-16.89,14.44-22.08l-3.13-3.99c6.43-11.32,15.02-20.92,28.36-27.5l-6.69-4.1c5.08-1.26,9.75-.86,14.1.53l4.2,4.96,1.08,5.75c11.46-4.97,20.27-2.32,26.84.4l13.05,6.68-4.1-6.47c13.66,4.6,21.28,13.95,24.15,26.09,2.87,12.15,4.1-2.59,3.99-3.02-.09-.37.64-15.63.85-20.05,5.21-3.56,13.11-.86,18.88-3.12,0,0-25.28,1.8-8.2-3.67s33.17,1.55,49.75,2.33c0,0-14.49-9.14-13.59-9.55l-.89-.02c-4.64-.11-9.22-.39-13.85-.77-2.92-.23-5.89-.52-8.81-.45-3.02.07-5.85.56-8.78,1.33-4.67,1.22-9.35,2.96-13.86,4.68l-.08.03-2,.76v-.05l-.98.52-.98-.52v.05l-2-.76c-4.53-1.73-9.24-3.48-13.94-4.71-2.92-.76-5.75-1.26-8.78-1.33-2.92-.07-5.9.21-8.81.45-4.62.37-9.21.65-13.85.77l-1.15.03h0s0,0,0,0h0s0,0,0,0h0s-5.43-.97-5.43-.97h0Zm5.44.98l-5.44-.98,3.25-4.93c.55,1.08,1.03,2.2,1.43,3.35v.03s.03.05.03.05v.03s.02.03.02.03h0s0,.03,0,.03c.04.1.07.21.1.31v.03s.04.1.04.1h0s.02.08.02.08h0s0,.03,0,.03v.03s.02.03.02.03h0s0,.03,0,.03v.03s.02.03.02.03h0s.01.05.01.05v.03s0,0,0,0v.05s.02.03.02.03h0s0,.03,0,.03v.03s.02.03.02.03h0s0,.03,0,.03v.03s.02.03.02.03h0s0,.03,0,.03v.03s.02.03.02.03h0s0,.03,0,.03v.03s.02.03.02.03h0s0,.03,0,.03v.03s.01.03.01.03h0s0,.03,0,.03v.03s.01.03.01.03l.31,1.1h0Zm3.72,12.49c9.47,13.16,28.9,12.83,31.87,34.81h0c2.02,3.64.62,9.53,1.75,15.86-7.34-26.75-27.82-32.38-44.39-32.08,10.55-3.18,29.22.52,39.09,11.32-7.06-11.38-21.95-11.59-28.32-29.91h0Zm-49.27,60.6c14.59,6.9,26.17,14.12,37.96,24.58-10.78-15.24-23.94-20.56-37.96-24.58h0Zm122.28-62.11c12.04-4.1,19.01,1.94,28.47,2.91-9.26,3.48-16.76-2.18-28.47-2.91h0Zm33.33,206.17c7.11,15.2,19.39,17.45,23.26,32,2.28,17.56,4.45,34.01.04,41.91,7.85-6.58,9.58-16.52,10.9-27.44,7.82-11.93,14.85-39.53,34.67-46.6-23.14,2.82-28.18,21.29-33.54,37.34,2.03-14.94,6.12-30.47,25.5-41.15,11.14-4.53,22.18-13.37,28.91-23.94-8.47,7.5-16.45,10.69-22.67,14.66-1.87,1.19-2.4.69-4.22,2.62,4.89-10.5,15.8-12.29,24.08-23.05,4.41-7.04.41-22.06-8.34-21.77-1.25,11.55-9.66,17.47-19.05,21.71-2.04.86-4.29,1.51-6.67,2.05l-23.54-.28h0c-6.92-.09-12.98-2.13-19.8-5.13,5.18,8.17,13.2,8.43,21.02,9.26l-.02.02c9.85-.17,20.72,3.63,30.58.43-12.3,6.6-24.79,3.78-36.35,5.72-4.99,8.63-4.89,22.41-3.47,37.03-7.09-3.08-13.65-7.25-21.28-15.4h0Zm39.34-332.16l-26.88,89.23,5.92-.2s-26.84,26.51-29.46,25.98l.31-1.1c1.31-4.69,3.99-8.82,7.16-12.46,1.81-2.08,3.77-4.03,5.83-5.85.14-.12.28-.25.42-.37l2.13-1.82-2.18-.58c2.17-7.81,4.95-15.44,7.64-23.08,2.79-7.89,5.64-15.75,8.64-23.55,6.05-15.72,12.71-31.24,20.46-46.2h0Zm38.58,334.62c-20.95,11.25-28.9,42.63-37.74,51.11,9.36-15.11,7.76-42.63,37.74-51.11h0Zm-235.19-129.94c8.5,2.34,10.78,4.81,14.2,7.8,1.02.9,2.14,4.27,3.12,5.17,11.76,10.71,20.84,19.38,28.4,37.06-1.73-22.57-17.25-27.89-25.88-41.84-6.61-5.97-12.36-9.56-19.84-8.19h0Zm-43.99,129.94c20.95,11.25,28.9,42.63,37.74,51.11-9.36-15.11-7.76-42.63-37.74-51.11h0Zm24.61-56.07c10.78,13.48,20.27,16.93,32.24,17.14-10.75-3.77-19.34-7.87-32.24-17.14Z"/><path class="cls-10" d="m485.46,462c-2.85,8.39-5.75,16.62-8.5,24.71-2.71,7.96-5.3,15.8-7.81,23.53,3.26-1.24,6.55-2.51,9.88-3.82.13-.94.27-1.89.4-2.84,3.17-1.3,6.37-2.62,9.59-3.99.15-.98.3-1.96.46-2.93,3.27-1.43,6.57-2.9,9.89-4.41.18-1,.35-2,.53-3.03,3.38-1.56,6.77-3.18,10.2-4.83l42.5-.43c3.42,1.66,6.82,3.27,10.2,4.83.18,1.02.35,2.02.53,3.03,3.33,1.51,6.63,2.98,9.89,4.41.16.98.31,1.96.46,2.93,3.22,1.37,6.42,2.69,9.59,3.99.13.95.27,1.9.4,2.84,3.33,1.31,6.62,2.58,9.88,3.82-2.51-7.73-5.1-15.57-7.81-23.53-2.76-8.09-5.65-16.33-8.5-24.71.9,6.59,1.91,13.14,2.87,19.62.96,6.46,1.88,12.89,2.79,19.29-2.59-7.57-5.25-15.25-8.02-23.03-2.82-7.92-5.47-16-7.59-24.3.47,6.89,1.16,13.71,2.27,20.42,1.11,6.67,2.17,13.31,3.23,19.91-2.8-7.85-5.92-15.74-8.64-23.92-2.75-8.24-4.51-16.81-6.42-25.43.32,7.11.25,14.23,1.01,21.25.75,6.97,2.37,13.77,3.57,20.58-3-8.16-6.35-16.38-8.44-24.99-2.1-8.65-3.64-17.52-5.33-26.44.16,7.31.35,14.61.56,21.88.22,7.28,1,14.45,2.34,21.49-3.21-8.48-5.34-17.26-7.01-26.2-1.68-9.01-3.22-18.13-4.72-27.33.03,7.5.06,14.99.14,22.49.07,7.47.18,14.96.37,22.41-1.73-9.03-3.38-18.17-4.85-27.4-1.42-8.91-2.7-17.91-3.93-26.97v-.77s-.06.35-.06.35l-.11-.78-.02,1.72c-1.23,9.02-2.51,18-3.92,26.88-1.47,9.22-3.11,18.36-4.85,27.4.19-7.46.29-14.95.36-22.41.07-7.5.1-14.99.14-22.49-1.51,9.19-3.04,18.31-4.72,27.33-1.67,8.94-3.79,17.72-7,26.2,1.35-7.04,2.13-14.21,2.34-21.49.22-7.27.4-14.58.56-21.88-1.69,8.92-3.23,17.79-5.33,26.44-2.09,8.61-5.43,16.83-8.44,24.99,1.2-6.81,2.82-13.62,3.57-20.58.76-7.02.69-14.14,1.01-21.25-1.91,8.62-3.67,17.18-6.42,25.43-2.73,8.18-5.84,16.07-8.64,23.92,1.06-6.59,2.12-13.23,3.23-19.9,1.11-6.71,1.8-13.53,2.27-20.42-2.12,8.29-4.77,16.38-7.59,24.3-2.77,7.78-5.43,15.46-8.02,23.03.91-6.41,1.83-12.83,2.79-19.29.96-6.48,1.97-13.02,2.87-19.62Z"/><g><path class="cls-10" d="m594.59,523.95c-4.09,7.08-8.63,13.07-13.49,18.2-5.53.45-13.28,3.25-17.41,6.75l-16.92,16.07c-4.01,1.63-8.05,3.05-12.06,4.3l-4.72,16.86-1.98-16.86c-4.01-1.26-8.05-2.67-12.07-4.3l-16.93-16.07c-4.13-3.5-11.89-6.31-17.41-6.75-4.86-5.12-9.4-11.12-13.49-18.2l.04.05c-2.52-6.68-2.89-14.56-.06-22.04-3.29,1.84-5.61,3.3-7.16,5.64,18.32-47.19,122.54-47.19,140.85,0-1.54-2.34-3.87-3.8-7.16-5.64,2.83,7.49,2.46,15.37-.06,22.04l.04-.05Z"/><path class="cls-5" d="m529.75,492.53c.12,0,.24,0,.36,0,.12,0,.24,0,.36,0v.02c.29.01.59.03.88.05.29-.02.59-.04.88-.05v-.02c.12,0,.24,0,.36,0,.12,0,.24,0,.36,0v.02c.46.02.91.05,1.36.1v.35c18.84,3.57,34.35,25.84,53.76,7.37.53,19.06-6.44,28.27-14.76,33.48-4.4.36-5.64-4.34-7.75-7.68l.06-.03c-6.35-9.46-21.78-3.79-22.06,1.46l-2,5.74c2.42,3.11,7.57,2.19,11.35,2.52-4.97,10.63-11.59,14.34-18.58,15.09v.15c-.57.01-1.14,0-1.71-.02h-.48s-.08.02-.08.02h-.3s-.04,0-.04,0h-.3s-.1,0-.1,0h-.3s-.04,0-.04,0h-.3s-.08,0-.08,0h-.48c-.57,0-1.14.01-1.71,0v-.15c-6.99-.75-13.62-4.46-18.58-15.09,3.77-.33,8.93.59,11.34-2.52l-2-5.74c-.28-5.26-15.71-10.92-22.06-1.46l.06.03c-2.11,3.33-3.35,8.04-7.75,7.68-8.32-5.21-15.29-14.42-14.76-33.48,19.4,18.47,34.91-3.8,53.76-7.37v-.35c.45-.04.9-.08,1.35-.1v-.02Z"/><path class="cls-2" d="m529.75,492.52c.12,0,.24,0,.36,0,.12,0,.24,0,.36,0v.02c.3.01.59.03.88.05.29-.02.59-.04.88-.05v-.02c.12,0,.24,0,.36,0,.12,0,.24,0,.36,0v.02c.46.02.91.05,1.36.1v.35c14.18,2.69,26.47,15.96,39.95,14.5h0s-8.37,3.47-8.37,3.47l-34.54-11.86c-16.79-.74-33.81,16.14-49.92,14.05-2.7-2.49-4.68-4.87-6.21-12.24,18.58,15.53,34.9-4.46,53.17-7.92v-.35c.45-.05.9-.08,1.36-.1v-.02Z"/></g><path class="cls-10" d="m698.32,678.2c-14.44,12.97-23.25,32.65-40.03,44.89,11.38-4.89,18.88-12.26,25.29-19.97h0s-12.54,21.3-12.54,21.3c-2.16,8.32-7.52,15.65-12.76,22.03-8.73,10.63-20.52,21.16-24.85,34.94-.08-1.69-.06-3.38.02-5.07.07-1.47.28-2.96.48-4.47h0s0-.01,0-.01c.14-1.06.29-2.12.38-3.18l1.45-12.14-5.59,9.36c-.05.06-.1.13-.14.2-.17.29-.34.58-.5.88h0c-2.33,4.2-3.97,8.88-6.06,13.21-2.52,5.23-5.36,10.26-8.66,14.97-3.24,4.63-7.05,8.99-11.31,12.55-2.85,2.37-5.86,4.52-8.89,6.63l-.71-3.57-9.72,11c-4.32,3.23-8.5,6.67-12.27,10.61-.23.25-3.96.37-9.3.42,1.74-2.58,3.87-5.12,6.41-7.67-3.89,2.59-6.89,5.12-9.21,7.69-1.72,0-3.55,0-5.44,0,2.12-4.78,5.5-9.17,10.18-13.4-6.31,3.56-10.35,7.44-12.99,11.74-.33.54-.65,1.09-.94,1.64l-3.08-.02c.42-1.74.96-3.44,1.65-5.12,2.18-5.36,5.81-10.18,10.96-14.52-6.35,3.26-10.46,7.21-13.17,11.64-1.58,2.58-2.7,5.25-3.6,7.96h-1.52c.42-3.87,1.32-7.66,2.82-11.35,2.27-5.58,5.93-10.58,11.12-14.91-6.39,3.27-10.53,7.47-13.3,12.22-2.71,4.64-4.18,9.32-5.44,13.98h-.18c.07-5.83,1.09-11.53,3.34-17.15,2.33-5.82,6.01-11.26,11.22-15.9-6.41,3.65-10.53,8.41-13.37,13.32-2.83,4.9-4.39,9.79-5.76,14.67.07-6.07,1.14-11.98,3.5-17.82,2.36-5.85,6.04-11.64,11.25-16.92-6.42,4.48-10.54,9.44-13.39,14.35-2.85,4.9-4.44,9.79-5.83,14.66.11-6.06,1.2-11.97,3.57-17.81,2.37-5.84,6.03-11.64,11.24-17.45-10.49,8.19-14.83,16.21-17.58,24.2-2.38,6.91-5.21,16.79-7.31,21.92-12.97.1-26.5.09-26.94-.39-3.77-3.93-7.95-7.38-12.27-10.61l-9.72-11-.71,3.57c-3.02-2.11-6.04-4.26-8.89-6.63-4.27-3.56-8.08-7.92-11.31-12.55-3.3-4.71-6.14-9.75-8.66-14.97-2.09-4.33-3.73-9.01-6.06-13.21h0s0,0,0,0c-.16-.29-.33-.59-.5-.88-.04-.07-.09-.14-.14-.2l-5.59-9.36,1.45,12.14c.09,1.06.24,2.12.38,3.18h0c.21,1.51.41,3.01.48,4.48.09,1.69.11,3.38.02,5.07-4.32-13.78-16.11-24.31-24.85-34.94-5.24-6.38-10.61-13.71-12.76-22.03-2.36-9.1-1.99-19.21-5.4-27.97l-.41-2.05c.02-.08.04-.16.05-.23.12-.6-.49-1.26-1.04-.86-1.89,1.39-3.5,4.38-4.17,6.7-.38,1.32-.47,2.56-.18,3.78-.12,1.15-.24,2.34-.2,2.46-2.38-6.6-2.77-13.77-3.14-20.76-.33-6.26-.77-12.69-4.21-18-.53-.82-1.68-.11-1.25.78,2.32,4.78,2.9,10.01,3.22,15.29-2.72,18.31,1.54,30.22,5.24,38.8.52-3.95.92-7.88,3.33-12.24,2.4,5.46,1.33,15.25,6.5,19.03,2.6,6.77,6.5,12.83,10.92,18.45,5.2,6.61,11.05,12.62,16.19,19.29,4.63,6.01,8.55,12.63,11.72,19.63-.06.25-.12.48-.2.7-.15.44.44.71.69.4.2.45.39.89.58,1.34.19.45.92.23.88-.25-.1-1.03-.25-2.03-.43-3.02.49-1.01.88-2.02,1.07-3.34l16.71,34.67,7.38,8.5-.77-7.29,15.44,12.5-23.28-3.23-.2,4.57-13.66-9.85h0l-19.15-21.94-2.45,14.39c-1.29-1.64-2.62-3.25-3.98-4.82-3.85-4.47-7.8-8.64-12.05-12.61l-.02-.28c-.08-.96-.87-1.33-1.5-1.11-.21-.19-.42-.38-.64-.57-.35-.31-.92.09-.66.54.18.31.36.62.54.92-.02.07-.03.15-.03.23-.11,1.38-.2,2.78-.21,4.17-1.9-2.57-4.3-4.75-6.79-6.71-4.84-3.84-10.27-6.79-15.6-9.77-5.34-2.99-10.77-5.97-15.63-9.81-3.82-3.02-6.82-6.68-9.91-10.37l.04-.16c.27-.95-.58-1.51-1.29-1.32-.21-.25-.42-.5-.64-.74-.29-.34-.94-.09-.89.39.06.63.16,1.24.3,1.84-1.47,2.71-2.45,6.22-2.67,9.73-.43-.87-.85-1.68-1.2-2.38-1.99-3.92-4-7.95-7.17-10.94-.36-.34-.93-.02-.81.5.99,4.37,3.53,8.07,5.55,11.95,1.03,1.97,2.04,3.94,2.87,6.02.62,1.52,1.02,2.93,2.12,4.12.11.11.24.13.36.07.26.48.55.93.87,1.36.23.31.73.05.72-.32-.12-3.07-.52-6.11-.42-9.19l6.83,6.62c.59,6.2,1.49,15.83,1.49,17.03,0,1.79-35.26-26.21-35.35-26.28-8.95-15.5-14.23-32.92-15.18-51.34-.1-2.02-2.77-2.19-3.14-.44-.03.02-.06.05-.08.07-1.59,1.69-2.58,3.58-3.39,5.64-1.15-16.25-2.38-32.77-.85-49.01.83-8.78,2.48-17.49,5.5-25.73,1.47-4.02,3.29-7.92,5.56-11.5,2.18-3.44,4.8-6.32,7.47-9.31.12-.13,2.08-1.92,1.83-2.17-2.37-2.32-4.68-3.96-7.67-2.58,5.99-13.87,19.75-32.54,35.49-21.25l2.92-10.3,37.07,63.33,4.46-8.58c30.12,36.83,29.1,87.68,65.46,82.46-40.1-18.46-28.79-72.75-68.89-113.01l-3.44,6.87c-3.89-7.42-7.97-14.74-11.68-22.27-3.11-6.32-6.17-12.76-8.48-19.46-.86-2.5-1.69-5.04-2.28-7.64l-1.16-9.16-1.93,1.55h0c-1.08.86-1.57,2.29-2.29,3.49-1.43-5.42-3.53-10.6-4.49-16.18-.81-4.72-1.05-9.51-.79-14.3.55-10.15,2.99-20.06,3.66-30.18.56-8.57-.58-17.22-1.05-25.76-.24-4.25-.45-8.55-.11-12.8.21-2.65,1.19-5.21,1.43-7.79,1.83-2.12,3.53-4.97,3.86-7.61.06-.45-.52-.6-.78-.34-.76.76-1.4,1.64-2,2.57-.7-.46-1.03-.78-1.93-.6-.69.14-1.38.31-2.02.61-.21.1-.41.2-.6.31,1.62-2.99,3.02-6.1,4.43-9.23,1.79-3.97,3.62-7.95,5.16-12.04,1.56-4.15,2.94-8.42,3.75-12.82.39-2.08.75-4.21.86-6.33.03-.5.05-1.01.06-1.52l.78,21.29,2.9-3.43,1.29,18.36,4.03-3.43c1.06,5.67-2.81,21.1-7.54,24.79,0,.18.25.26.33.09,11.82-4.85,11.94-22.69,15.23-34.79l-3.46,2.73c-.65-2.98-1.16-5.94-1.2-9.07-.04-3.22-.02-6.44-.01-9.67l.64-3.29c.02-.06.03-.12.03-.17h0c.03-.5-.48-1.04-1.03-.73-.87.5-1.74,1.24-2.14,2.23-.22.52-.38,1.03-.46,1.59-.01.09-.02.17-.02.26-1.32-3.79-3.33-7.38-4.62-11.19-1.74-5.13-3.07-10.47-3.87-15.85-.16-1.08-.31-2.17-.43-3.26.1-.05.17-.17.15-.3-.09-.49-.21-.97-.33-1.45-.35-3.75-.42-7.53.02-11.26.3-2.52.8-5.05,1.65-7.43.82-2.28,2.05-4.3,2.98-6.52.04-.1.04-.22,0-.32.62-.51.44-1.69-.56-1.79-.58-.06-1.2-.07-1.77.09,1.39-3.54,2.58-7.18,4.07-10.66,1.86-4.34,3.96-8.59,6.3-12.65,3.49-6.05,7.53-11.72,11.91-17.07v-.12s.05.05.05.05c2.06-.97,4.2-1.74,6.48-2.39,2.27-.65,4.69-1.16,7.35-1.39-2.46-.62-4.77-1.02-6.97-1.26-2.2-.24-4.33-.33-6.41-.28,2.11-1.13,4.31-2.05,6.64-2.81,2.36-.77,4.82-1.36,7.48-1.69-2.34-.54-4.57-.86-6.73-1-2.17-.15-4.29-.14-6.38.03,2.3-1.28,4.67-2.33,7.17-3.19,2.53-.87,5.15-1.53,7.91-1.93-2.27-.49-4.47-.75-6.65-.83-2.19-.08-4.35,0-6.51.26,2.56-1.39,5.2-2.56,7.92-3.49,2.78-.95,5.62-1.66,8.57-2.1-2.23-.46-4.45-.69-6.69-.73-2.16-.03-4.33.1-6.52.39l.14-.17c2.82-1.4,5.69-2.59,8.63-3.53,3.17-1.02,6.37-1.75,9.61-2.22-3.2-.66-6.53-.82-10.03-.58,6.35-3.05,14.81-4,25.59-1.94-.82-.85-4.89-4.67-11.59-5.09,3.25-1.28,6.47-2.61,9.53-4.32,5.37-2.99,9.36-8.05,13.37-12.79,3.79-4.48,7.68-8.85,11.54-13.25.03-.03.05-.07.07-.1v-.02c4.98-3.99,9.5-6.89,14.62-8.7-3.01-.02-5.95.41-9.15,1.28,4.29-3.28,8.33-5.71,12.83-7.3-3.01-.02-5.95.41-9.15,1.28,4.29-3.28,8.33-5.71,12.83-7.3-9.68-.07-31.97,9.36-37.94,15.24l5.37.6c-10.6,9.28-15.43,15.19-21.65,25.46.46-1.81.99-3.6,1.64-5.35,2.06-5.57,5.04-10.46,8.81-14.89.11-.13.18-.26.21-.4h0l2.75-2.77-4.93.27s-.04,0-.06,0c-.58.06-1.13.28-1.61.6l-.06.02c.35-1.48.66-2.97,1.11-4.38,1.02-3.28,2.29-6.47,3.85-9.5,3-5.82,6.8-11.19,11.6-15.47.46-.41.23-1.08-.2-1.35l-.07-.46s.02-.05.02-.08c.11-.59-.02-1.18-.29-1.73h0c-.44-.91-1.24-1.7-1.96-2.17-.67-.44-1.39-.83-2.17-1-.41-.09-.79-.07-1.17,0,3.17-1.53,6.09-3.67,9.46-4.76,1.95-.63,4.14-1.21,6.19-.78.92.19,1.86.46,2.66.98.48.3,1.26.59,1.83.94l.82.75-.04-1.68s.07-.08.08-.14c.75-2.83.23-6.29-.98-8.97l.98.39c1.68,1.83,3.67,3.39,5.55,4.99l.7.69,11.89,13.87-2.25,2.46c-1.05.72-1.96,1.6-2.45,2.69-.15.33.02.86.44.82,2.49-.28,4.85-2.27,7.13-3.3,2.82-1.28,5.8-2.24,8.82-2.84,17.18-3.4,29.39-4.43,43.99,1.74v53.1c.96-9.06,2.08-20.12,2.45-23.79.37,3.67,1.49,14.73,2.45,23.79v-53.1c14.6-6.17,26.82-5.14,44-1.74,3.02.6,5.99,1.56,8.82,2.84,2.28,1.03,4.64,3.02,7.13,3.3.42.05.59-.49.44-.82-.5-1.09-1.41-1.97-2.45-2.69l-2.25-2.46,11.89-13.87.7-.69c1.88-1.61,3.87-3.17,5.55-4.99l.98-.39c-1.2,2.68-1.72,6.14-.98,8.97.02.06.05.11.08.14l-.04,1.68.82-.75c.57-.35,1.35-.63,1.83-.94.81-.52,1.75-.78,2.66-.98,2.04-.43,4.24.15,6.19.78,3.38,1.09,6.29,3.23,9.46,4.76-.38-.06-.76-.08-1.17,0-.78.18-1.5.56-2.17,1-.72.47-1.53,1.26-1.96,2.17h0c-.27.55-.4,1.15-.29,1.73,0,.03.01.05.02.08l-.07.46c-.43.27-.66.94-.2,1.35,4.8,4.27,8.6,9.65,11.6,15.47,1.56,3.03,2.83,6.22,3.85,9.5.44,1.41.76,2.9,1.11,4.38l-.06-.02c-.47-.33-1.03-.54-1.61-.6-.02,0-.04,0-.06,0l-4.93-.27,2.75,2.77h0c.03.14.1.27.21.4,3.77,4.43,6.75,9.32,8.81,14.89.65,1.75,1.18,3.54,1.64,5.35-6.22-10.28-11.05-16.18-21.65-25.46l5.37-.6c-5.97-5.88-28.27-15.31-37.94-15.24,4.5,1.59,8.54,4.02,12.83,7.3-3.19-.88-6.14-1.31-9.15-1.28,4.5,1.59,8.54,4.02,12.83,7.3-3.19-.88-6.14-1.31-9.15-1.28,5.12,1.81,9.64,4.71,14.61,8.7v.02s.06.07.08.1c3.86,4.41,7.75,8.78,11.54,13.25,3.94,4.65,7.95,9.39,13.17,12.4-13.33-1.9-25.66.78-42.17,15.98,18.47-8.35,49.49-12.13,65.9-4.24-3.51-.23-6.83-.07-10.03.58,3.24.47,6.44,1.2,9.61,2.22,2.94.94,5.81,2.13,8.63,3.53l.14.17c-2.2-.29-4.37-.43-6.52-.39-2.23.04-4.46.27-6.69.73,2.95.44,5.79,1.15,8.57,2.1,2.72.93,5.36,2.09,7.92,3.49-2.16-.25-4.32-.34-6.51-.26-2.17.08-4.38.34-6.65.83,2.76.4,5.38,1.06,7.91,1.93,2.49.86,4.87,1.91,7.17,3.19-2.09-.17-4.21-.17-6.38-.03-2.16.15-4.39.47-6.73,1,2.66.33,5.13.92,7.48,1.69,2.33.76,4.53,1.68,6.64,2.81-2.08-.05-4.21.05-6.41.28-2.2.24-4.5.63-6.97,1.26,2.66.23,5.08.74,7.35,1.39,2.28.65,4.42,1.43,6.48,2.39l.05-.05v.12c4.38,5.35,8.42,11.02,11.91,17.07,2.34,4.06,4.44,8.31,6.3,12.65,1.49,3.48,2.69,7.12,4.07,10.66-.57-.16-1.18-.15-1.76-.09-.99.1-1.18,1.28-.56,1.79-.04.11-.04.22,0,.32.92,2.21,2.16,4.24,2.98,6.52.86,2.38,1.35,4.91,1.66,7.43.45,3.73.37,7.52.02,11.26-.13.48-.24.96-.33,1.45-.02.13.05.25.15.3-.13,1.09-.27,2.18-.43,3.26-.71,4.77-.85,6.21-2.31,10.79,1.26-12.62-.61-19.99-3.92-33.97,3.13,18.51-.6,33.6-2.23,50.14l-.03.09c0-.08,0-.17-.02-.26-.08-.56-.24-1.07-.46-1.59-.41-.99-1.27-1.73-2.15-2.23-.55-.31-1.06.23-1.03.73h0c0,.06.01.12.03.18l.64,3.29c0,3.22.03,6.44-.01,9.67-.04,3.14-.56,6.09-1.2,9.07l-3.47-2.73,1.38,5.09c-.52,5.14-.61,10.42-.76,15.57-.1,3.61-.06,7.38.58,10.99.02,1.54.07,3.02.14,4.46-1.57-2.47-3.35-4.95-5.24-7.55,2.13,5.3,4.51,10.44,6.02,15.96.56,4.31,1.31,8.11,2,11.53.22,2.49.33,5.04.35,7.67l-1.44.07c-.38-3.39-1.01-6.59-2.04-9.79-1.65-5.12-4.48-10.03-7.81-15.97,1.82,6.57,3.87,12.2,5,17.84.54,2.7.87,5.39,1.05,8.1h-.09c.03,2.43-.52,5.21-1.31,7.92-.21-2.5-.61-4.91-1.27-7.34-1.26-4.63-3.6-9.21-6.37-14.96,1.35,6.44,2.94,11.59,3.65,16.63.71,5.06.65,9.97.06,15.13l-1.35,2.23c.18-3.56.01-6.85-.72-10.17-.88-4.02-2.78-7.97-4.9-12.94.83,5.4,1.93,9.67,2.28,13.76.36,4.18-.07,8.3-.95,12.56-.24,1.86-.62,3.76-1.15,5.7-.41.51-.83,1.02-1.25,1.53.25-1.07.45-2.13.59-3.17.71-4.19.97-7.97.38-11.64-.54-3.41-1.97-6.75-3.59-10.59.37,3.84,1.07,6.96,1.05,10.08-.01,3.35-.72,6.78-1.84,10.5-.77,4.3-2.34,8.82-4.36,13.35l-.74.77c1.29-3.49,2.51-7.07,3.1-10.48.93-4.13,1.39-7.72,1.13-11.25-.24-3.21-1.28-6.12-2.37-9.04-.07,2.33.19,4.94-.12,7.9-.34,3.33-1.21,6.82-2.54,10.58-1.26,5.68-3.82,11.7-6.02,17.27,1.05-4.3,2.95-9.08,3.88-13.65,1.09-4.11,1.72-7.75,1.74-11.37.02-3.34-.63-6.49-1.24-9.67-.46,2.51-.56,5.37-1.11,8.47-.62,3.44-1.69,6.98-3.19,10.75-1.41,5.62-3.87,11.46-5.38,16.69.62-4.07,2.13-8.61,3.13-13.09,1.23-4.08,2-7.71,2.28-11.42.26-3.45-.02-6.83-.24-10.29-.8,2.77-1.21,5.81-2.02,9.04-.88,3.52-2.11,7.09-3.76,10.86-1.49,5.52-3.54,11.06-4.59,16.07.34-3.94,1.34-8.18,2.27-12.54,1.32-4.02,2.22-7.64,2.73-11.39.48-3.54.52-7.06.73-10.83-1.11,2.98-1.86,6.21-2.89,9.55-1.1,3.57-2.48,7.16-4.22,10.88-1.5,5.38-2.98,10.59-3.71,15.45.1-3.82.58-7.81,1.37-11.98,1.36-3.95,2.34-7.54,3.06-11.31.69-3.6,1.03-7.27,1.62-11.25-1.44,3.19-2.44,6.53-3.69,9.96-1.32,3.61-2.8,7.17-4.62,10.84-1.45,5.66-2.49,11-2.82,16.15-.32,5.04-.36,10.1-.6,15.2l.19-30.86c3.29-16.22,5.92-31.52,10.44-48.63-8.9,18.99-13.84,34.92-17.82,52.43-.07,11.65.51,22.4-1.02,33.59-1.47,6.84-3.74,13.51-7.05,19.58-1.57,2.86-3.42,5.53-5.54,7.95-1.71,1.95-3.67,3.66-5.39,5.6l-.93.55c-.93-.01-1.87.06-2.8.03-1.9-.07-3.78-.41-5.63-.86-12.53-3.05-62.3-8.85-62.9-24.31,1.31-.68,4.41-2.93,4.41-2.93l6.76-5.47-5.47,3.18-5.95,1.63v-.58c3.74-1.88,7.24-3.73,7.24-3.73l6.76-5.47-5.47,3.18-8.63,2.37c4.56-2.21,9.92-5.05,9.92-5.05l6.76-5.47-5.47,3.18-8.63,2.37c4.56-2.21,9.92-5.05,9.92-5.05l6.76-5.47-5.47,3.18-10.14,2.79-7.36.4s-.12,2.83-.11,4.84l-.63.03-.63-.03c.01-2-.11-4.84-.11-4.84l-7.36-.4-10.14-2.79-5.47-3.18,6.76,5.47s5.36,2.84,9.92,5.05l-8.63-2.37-5.47-3.18,6.76,5.47s5.36,2.84,9.92,5.05l-8.63-2.37-5.47-3.18,6.76,5.47s3.5,1.85,7.25,3.73v.58s-5.96-1.63-5.96-1.63l-5.47-3.18,6.76,5.47s3.1,2.25,4.41,2.93c-.6,15.46-50.37,21.26-62.9,24.31-1.85.45-3.73.8-5.63.86-.93.03-1.87-.04-2.8-.03l-.94-.55c-1.73-1.93-3.68-3.65-5.39-5.6-2.12-2.42-3.97-5.09-5.54-7.95-3.32-6.07-5.59-12.75-7.05-19.58-1.53-11.2-.95-21.95-1.02-33.59-3.98-17.5-8.92-33.43-17.82-52.43,4.52,17.1,7.15,32.41,10.44,48.63l.2,31.06c-1.67-1.43-3.42-2.76-5.33-3.7h0s-4.92-3.79-4.92-3.79l.05,2.67c-1.66-3.19-3.93-6.12-6.04-8.67-4.55-5.52-9.67-10.45-14.54-15.63-4.88-5.19-9.74-10.6-13.11-17.07-2.76-5.29-6.16-12.1-6.36-17.49,3.24,1.57,6.14,3.32,8.27,5.76-4.46-15.76-17.33-8.52-30.43-19.76,5.28,7.4,13.85,10.14,21.06,13.49-5.38,19.71,42.48,79.66,44.83,83.96l.93-11.21c13.48,6.88,18.58,45.16,27.68,52.35l7.21-8.58c11.34,34.27,47.31,58.69,73.92,83.26,8.05-7.43,17.17-15.2,26-22.88-.9,2.54,10.51,7.14,9.59,9.81-8.78,25.4-30.41,54.09-29.61,81.52,29.61-77.09,70.45-86.61,72.46-112.96l-19.89,4.78c29.66-30.49,73.48-35.02,88.77-91.46,3.85,5.77,4.71,10.54,4.97,16.71,8.49-10.67,10.02-27.32,10.55-41.17l5.42,4.08,7.56-23.27-11.18-42.71,12.76,23.95,2.15-42.2-5.97-18.5,6.36,2.39-9.38-25.51.39-10.65c.02.51.04,1.01.06,1.52.11,2.12.47,4.25.86,6.33.82,4.4,2.2,8.66,3.75,12.82,1.54,4.1,3.36,8.07,5.16,12.04,1.41,3.12,2.81,6.23,4.43,9.23-.19-.11-.39-.21-.6-.31-.65-.3-1.33-.47-2.02-.61-.9-.18-1.23.14-1.93.6-.59-.93-1.24-1.8-2-2.57-.26-.26-.84-.11-.78.34.33,2.64,2.03,5.49,3.86,7.61.24,2.58,1.23,5.14,1.43,7.79.33,4.25.12,8.55-.11,12.8-.47,8.55-1.62,17.19-1.05,25.76.67,10.12,3.11,20.03,3.66,30.18.26,4.79.02,9.58-.79,14.3-.95,5.57-3.05,10.75-4.49,16.18-.72-1.2-1.22-2.63-2.29-3.49h0l-1.93-1.55-1.16,9.16c-.58,2.6-1.41,5.14-2.28,7.64-2.31,6.71-5.37,13.14-8.48,19.46-3.71,7.53-7.79,14.84-11.68,22.27,7.28-16.57,16.35-37.93,13.85-64.49-1.05,34.86-13.12,49.92-22.76,61.41h0c-21.34,15.34-36.33,32.63-45.88,50.94,15.76-12.39,27.17-24.21,45.53-32.14-15.54,12.9-24.37,33.71-41.84,46.45,22.58-9.71,29.87-29.14,43.79-41.74l13.14-12.9c-9.64,16.35-33.86,51.22-50.56,63.4,12.18-5.23,38.45-32.04,44.49-42.37,2.92-2.55,7.51-12.84,10.02-17.12-8.19,25.63-26.04,52.12-48.14,68.24,20.03-8.61,28.03-24.89,39.3-37.25,3.28-3.25,6.44-6.22,9.85-9.21-1.31,2.02-3.03,6.94-3.86,11.33-13.8,12.96-22.58,31.95-38.93,43.88,19.77-8.5,27.81-24.45,38.85-36.75,4.29-7.38,9.79-7.88,9.67-5.63-.08,1.61-.9,3.77-2.12,6.23h0Zm-343.56-176.01c3.74,26.67,22.79,30.69,28.04,50.25-2.88-24.3-20.63-31.34-28.04-50.25h0Zm307.85-137.72c-3.15,11.62-7.46,17.88-13.82,23.75,11.03-5.58,13.3-13.5,13.82-23.75h0Zm-18.41,32.09c-13.92,2.78-29-3.14-43,2.28,13.34-2.11,24.71,5.91,37.13,2.94-1.08,1.35-2.02,2.89-2.8,4.7,10.14-10.57,29.29-9.06,31.06-32.34-4.66,14.31-14.56,17.18-22.38,22.43h0Zm-53.09,222.05l.03-.04c-8.84-14.23-43.35-12.97-59.77-15.76-16.43,2.79-50.94,1.53-59.77,15.76l.03.04v-.04c9.59-4.69,22.42-7.45,36.47-8.24-9.84,3.36-21.05,6.01-29.51,10.49,8.51-3,18.74-4.81,29.71-5.43-9.84,3.36-21.05,6.01-29.51,10.49,8.51-3,18.74-4.81,29.71-5.43-8.1,2.77-17.12,5.05-24.78,8.27l2.41.08c6.87-1.74,14.52-2.84,22.57-3.29-3.71,1.27-7.61,2.43-11.49,3.63,23.89.65,44.47.65,68.37,0-3.88-1.2-7.78-2.37-11.49-3.63,8.05.45,15.7,1.55,22.57,3.29.8-.03,1.6-.05,2.41-.08-7.66-3.22-16.69-5.51-24.78-8.27,10.97.62,21.19,2.44,29.71,5.43-8.46-4.49-19.67-7.13-29.51-10.49,10.97.62,21.19,2.44,29.7,5.43-8.46-4.49-19.67-7.13-29.51-10.49,14.05.79,26.88,3.55,36.46,8.24l.02.04h0Zm-237.24-433.37c1.66,21.69,4.5,43.51,9.3,65.18-1.36-16.37-1.14-35.85,1.5-53.33,1.66,21.69,4.5,43.51,9.3,65.18-1.36-16.37-1.14-35.85,1.5-53.33,1.29,16.86,3.29,33.79,6.37,50.67.73-.77,1.44-1.58,2.13-2.45-.16-11.99.52-24.63,2.29-36.37.72,9.43,1.66,18.88,2.9,28.34,8.85-16.7,12.58-41.65,8.44-59.79,9.7,6.64,13.42,12.49,16.55,20.53,1.05-17.21-1-32.2-13.59-50.25h16.1c-1.09-15.98-7.64-28.69-16.66-40.51-.49.97-.96,1.94-1.42,2.94-4.59,9.87-8.19,20.72-12.71,32.2,1.18-8.1,2-16.02,3.08-23.95.91-6.68,2.1-13.32,3.92-19.87-.15-.18-.31-.35-.46-.53-2.76,5.51-5.22,11.31-7.5,17.35-2.73,7.26-5.33,14.75-8.25,22.66,1.11-8.51,1.88-16.83,2.98-25.15,1.09-8.25,2.67-16.5,5.19-24.7-3.48,6.86-6.54,14.12-9.23,21.95-2.81,8.2-5.34,16.91-8.25,26.11,1.09-9.2,1.81-18.11,2.98-27.14,1.16-8.92,2.9-17.91,5.59-27.13-3.61,8.13-6.81,16.54-9.6,25.35-2.88,9.09-5.43,18.57-8.29,28.57,1.05-9.81,1.8-19.3,3.08-28.93,1.26-9.5,3.2-19.04,5.91-28.86-3.61,8.76-6.97,17.8-9.87,27.25-2.98,9.72-5.57,19.82-8.45,30.4,1.08-10.41,1.87-20.52,3.3-30.71,1.41-10.08,3.48-20.16,6.08-30.52-3.52,9.25-6.93,18.76-9.97,28.7-3.13,10.21-5.78,20.81-8.7,31.81,1.6-15.18,3.13-29.77,5.77-44.89-6.58,25.22-9.66,50.2-16.76,75.45-3.9-47.51,2.5-90.9,23.07-142.53-.05-.19.2-.4.39-.3,15.73,7.56,29.76,19.59,42.35,32.02,11.9,11.75,23.65,25.91,28.99,42.54h0s1.13,3.52,1.13,3.52l-2.7.61h0c-.56.29-1.18.47-1.79.6,2.86,2.12,5.36,4.79,7.75,7.54,4.24,4.89,7.87,10.39,10.91,16.2,2.89,5.52,5.14,11.42,6.49,17.58,1.08,4.93,1.67,10.41.6,15.42.3.93.47,1.9.46,2.88,0,.25-.34.45-.5.22-.24-.32-.46-.65-.68-.99-.44.3-1.15.08-1.11-.6.03-.4.05-.8.07-1.2-.33-.61-.66-1.22-.99-1.81-.95-1.65-2.17-3.15-3.53-4.44,3.04,7.06,3.96,15.03,4.26,22.73.24,6.16.31,12.35.83,18.49l5.01,2.33v-13.21c12.86,7.25,21.44,14.5,30.35,24.84l-.08.19.18-.19c-1.74-3.74-4.17-7.09-6.85-10.11-1.54-1.74-3.21-3.33-4.93-4.86-1.66-1.48-3.66-2.97-4.81-4.96-.31-.53.2-1.06.7-.97,1.44.27,2.85,1.1,4.1,2.05-3.81-9.15-6.87-18.67-10.28-28-3.64-9.98-7.44-19.91-11.48-29.72-8.08-19.66-17.29-38.86-28.52-56.7-8.59-13.64-18.48-26.37-29.84-37.5-5.8-5.69-12.01-10.89-18.56-15.57-3.22-2.3-6.51-4.45-9.84-6.54-3.16-1.98-6.5-3.86-9.55-6.07-.74,1.09-1.5,2.02-2.45,3.08-1.45,1.61-2.77,3.34-3.99,5.14-2.51,3.69-4.63,7.68-6.51,11.76-4.25,9.23-7.15,19.14-9.58,29.06-5.1,20.81-8.57,42.62-9.73,64.1-1.16,21.71.02,43.48.45,65.2.21,10.85.23,21.71-.28,32.56-.26,5.55-.69,11.09-1.29,16.62-.26,2.42-.6,4.84-.97,7.23-.19,1.26-.55,2.46-.91,3.67.04.05.07.11.09.18.35,1.03.1,2.11.01,3.18-.11,1.41-.17,2.81-.12,4.23.09,2.96.71,5.86,1.51,8.68,1.7,5.99,4.43,11.58,7.28,17.03,2.78,5.33,5.5,10.74,8.07,16.2,2.26,4.81,4.95,10.32,4.61,15.82-.05.9-1.69,2.27-2.18,3.32-.69,1.5-1.19,3.18-2.02,4.61.44-.56,1.41-.71,2.04-.7.62,0,1.21.12,1.79.35.53.2.85.73,1.21,1.16.31.37.12,1.04-.4,1.02-.07,0-.14,0-.21.02.1.2.11.45-.04.67-2.55,3.72-3.49,8.16-3.68,12.7-.17,4.08.2,8.66,1.62,12.58.18-.41.42-.79.68-1.13.75-.99,1.94-2.21,3.23-2.01.23.03.34.33.29.54-.41,1.84-1.15,6.79-1.23,8.7-.1,2.61.29,5.19.91,7.71,1.34,5.47,4.05,10.52,6.87,15.26,2.95,4.95,6.26,9.65,9.39,14.47,2.37,3.66,4.63,7.6,5.86,11.88h0c-.71-16.62-15.24-26.35-18.53-48.65l2.98-15.91-5.17,1.19c4.99-6.71,4.22-14.22,14.98-20.13l-10.14-1.69c2.62-7.6-4.23-13.32,4.37-17.44-3.51-11.21-8.74-20.3-14.22-29.32-2.52-4.16.23-14.81-2.36-19.57-.12-.23.16-.45.34-.28,5.25,5.07,10.59,10.08,15.74,15.28-1.88-8.57-7.11-15.58-11.49-22.9-2.24-3.74-4.23-7.71-5.37-12-.97-3.66-1.51-8.7.58-12.04.24-.38.82-.25.83.24,6.11,14.01,9.28,14.51,16.21,25.99,2.55,2.43,5.04,4.29,7.47,5.64-4.86-17.08-6.94-50.67-2.67-79h0Zm330.87,368.88c-3.8-27.53,11.16-24.29.83-39.71,1.04,12.62-9.84,22.56-.83,39.71h0Zm-34.31,32.23c12.81-24.66,23.15-13.37,23.62-31.93-6.45,10.9-21.07,12.72-23.62,31.93h0Zm-94.62-253.48c-8,16.14-5.62,27.73-1.82,40.24-1.99-13.8-1.12-25.01,1.82-40.24h0Zm121.5,42.28c7.62,14.66,10.78,28.15,9.49,44.56.78-2.74,1.42-5.48,1.86-8.2,5.33-20.58,3.83-40.98-13.43-57.08,6.27,12.06,10.29,23.54,12.05,35.7-1.86-5.34-5.06-10.39-9.97-14.97h0Zm21.47,346.68c-15.47,4.45-20.06,25.3-30.09,37.95,16.32-7.57,15.95-30.11,30.09-37.95h0Zm12.26,23.4c-8.41,2.41-10.9,13.75-16.35,20.62,8.87-4.11,8.66-16.36,16.35-20.62h0Zm-2.15-7.3c-11.27,3.24-14.6,18.42-21.91,27.63,11.88-5.51,11.61-21.92,21.91-27.63h0Zm-4-8.94c-14.23,4.09-18.45,23.27-27.67,34.91,15.01-6.96,14.67-27.69,27.67-34.91h0Zm-54.23-406c-21.15-7.56-31.51,13.59-47.93,28.64,14.78-5.57,31.33-31.31,47.93-28.64h0Zm32.34,271.7c-2.98,7.79-11.04,15.68-16.21,20.09-11.6,11.8-27.91,16.57-34.81,35.4,7.51-10.12,23.59-25.99,40.01-30.78,4.83-5.45,11.15-12.69,11-24.71h0Zm-61.63,88.76c-17.46,10.68-35.58,26.2-46.12,43.95-9.9,16.68-17.68,36.41-28.63,53.16,14.96-18.26,23.27-34.78,32.48-49.63,9.7-15.63,24.67-30.71,42.27-47.47h0Zm29.12,43.42c-16.3,10.74-28.9,27.95-40.47,45.93-12.36,19.19-28.04,37.9-40,53.8,16.95-17.02,31.89-33.28,43.38-50.55,10.8-16.23,20.8-32.56,37.09-49.18h0Zm-4.87-8.28c-16.96,10.61-30.76,27.71-42.1,45.68-11.73,18.6-26.98,35.81-39.45,51.34,17.14-15.84,31.73-31.05,42.76-48.01,10.5-16.15,21.62-32.46,38.79-49h0Zm-5.41-8.5c-17.3,10.5-32.14,27.38-43.36,45.35-10.8,17.3-25.13,34.43-37.99,50.53,17.39-16.83,31.06-30.91,41.38-47.08,10.31-16.15,22.48-32.32,39.96-48.8h0Zm-6.02-8.7c-17.4,10.42-33.3,26.98-44.24,44.79-9.96,16.21-22.82,34.53-35.64,51.03,17.23-17.68,29.7-32.53,39.09-47.31,10.23-16.09,23.31-32.04,40.79-48.51h0Zm-6.42-8.89c-17.43,10.47-34.45,26.55-44.89,43.96-9.87,16.47-20.33,35.67-32.58,52.39,16.46-18.12,27.05-34.02,36.14-48.52,9.83-15.7,23.9-31.29,41.33-47.82h0Zm-157.55-144.93c2.59,3.14,4.65,3.57,6.06,7.53,9.48,2.06,18.29,8.7,26.28,13.53-5.07-6.66-15.13-11.95-25.28-14.93-2.06-2.83-3.31-4.65-7.07-6.13h0Zm122.28,0c-3.76,1.47-5.01,3.3-7.07,6.13-10.14,2.98-20.21,8.27-25.28,14.93,7.99-4.84,16.8-11.48,26.28-13.53,1.42-3.96,3.47-4.38,6.06-7.53h0Zm5.07-14.02c-3.61,2.42-10.32,10.07-12.38,12.9-9.34,3-18.98,8.33-23.84,13.83,7.99-4.84,15.02-8.87,24.5-10.93,1.42-3.96,8.3-12.92,11.73-15.8h0Zm-132.42,0c3.42,2.88,10.31,11.84,11.72,15.8,9.48,2.06,16.51,6.09,24.5,10.93-4.86-5.5-14.5-10.83-23.84-13.83-2.06-2.83-8.77-10.48-12.38-12.9h0Zm14.92-134.57c18.14.12,21.28-14.04,18.6-27.75-2.35,12.5-4.11,22.41-18.6,27.75h0Zm-.76-1.87c17.55-4.56,16.04-26.9,9.92-39.46.95,12.68,2.7,30.57-9.92,39.46h0Zm121.83-67.73c-16.26,8.51-23.18,20.59-24.92,36.26-3.85-13.46,3.79-29.6,18.67-43.32-5.01,1.47-9.81,4.01-14.19,7.3-3.75,2.52-7.04,5.22-9.88,8.17-.98-6.24,12.13-25.51,12.83-26.26-15.1,9.58-22.39,20.82-23.87,37.78h0s-.62,8.5-.62,8.5h0c-1.42,19.39-1.96,34.63,23.04,43.4-11.49,1.62-23.19-9.83-23.61-19.43,0-.16-.22-.15-.24,0-2.49,20.12,21.75,31.2,36.6,16.26l24.99-3.83-23.12-.25c4-2.29,9.73-1.42,13.98-1.73,3.18-.23,6.36-.43,9.51-.89,3.15-.46,5.8-1.6,8.55-3.2,7.07-4.13,13.16-10.71,16.32-18.3,1.34-3.22,2.14-6.58,2.25-10.04,1.34,12.04-3.07,21.05-11.41,30.56,13.68-6.3,22.08-20.75,18.78-35.27,8.58-2.81,21.42-11.14,16.45-20.69-.02-.06-.04-.1-.07-.14l-.02-.03h0c-.2-.2-.62-.15-.78.11-1.19,1.96-1.8,4.2-2.98,6.19-1.04,1.76-2.59,3.03-4.39,3.94-3.47,1.75-7.74,1.78-11.53,2.2-10.5,1.15-19.57,4.38-28.75,10.28.48-1.11.93-2.26,1.32-3.45-2.56,2.63-5.04,5.55-7.67,8.15-.17.15-.34.29-.51.44.47-1.45.86-2.95,1.17-4.52-2.04,2.7-3.99,5.65-6.08,8.37.09-1.04.15-2.1.16-3.17-1.9,3.8-3.58,7.94-5.68,11.61-.23.39-.46.77-.69,1.16l-.1.16h0c-.94,1.62-1.84,3.28-2.75,4.96-3.33,6.12-7.18,14.17-13.4,18.2,2.58-3.8,4.55-8.43,5.69-14.01-3.86-1.9-7.08-4.05-9.71-6.41-2-18.13,4.54-37.45,16.66-49.01h0Zm133.17-151.88l4.45-2.15-7.14,59.15h0c.93,3.13.43,6.98-.35,9.94-1.14,4.29-3.13,8.25-5.37,12-4.38,7.32-9.6,14.32-11.49,22.9,5.16-5.2,10.5-10.2,15.74-15.28.18-.17.46.05.34.28-2.59,4.75.17,15.41-2.36,19.57-5.48,9.02-10.71,18.12-14.22,29.32,8.6,4.12,1.74,9.84,4.37,17.44l-10.14,1.69c10.76,5.92,9.99,13.42,14.99,20.13l-5.17-1.19,2.98,15.91c-3.28,22.3-17.82,32.04-18.53,48.65h0c1.22-4.28,3.49-8.22,5.86-11.88,3.13-4.82,6.44-9.52,9.39-14.47,2.82-4.74,5.53-9.79,6.87-15.26.61-2.51,1.01-5.1.91-7.71-.08-1.91-.82-6.86-1.23-8.7-.05-.21.06-.51.29-.54,1.29-.19,2.47,1.03,3.23,2.01.26.34.5.73.68,1.13,1.42-3.91,1.79-8.5,1.62-12.58-.19-4.53-1.13-8.98-3.68-12.7-.16-.23-.15-.47-.04-.67-.07,0-.14-.02-.21-.02-.52.01-.71-.65-.4-1.02.36-.43.69-.95,1.21-1.16.58-.22,1.17-.34,1.79-.35.63,0,1.59.14,2.04.7-.83-1.43-1.33-3.1-2.02-4.61-.49-1.05-2.13-2.42-2.18-3.32-.34-5.5,2.35-11.01,4.61-15.82,2.56-5.46,5.28-10.87,8.06-16.2,2.84-5.45,5.58-11.04,7.28-17.03.8-2.82,1.42-5.73,1.51-8.68.04-1.42,0-2.82-.12-4.23-.09-1.07-.34-2.15.01-3.18.02-.07.05-.13.09-.18-.36-1.2-.72-2.41-.91-3.67-.37-2.4-.71-4.82-.97-7.23-.6-5.52-1.03-11.06-1.29-16.62-.51-10.85-.49-21.7-.28-32.56.43-21.72,1.61-43.48.45-65.2-1.15-21.47-4.63-43.28-9.73-64.1-2.43-9.92-5.33-19.84-9.58-29.06-1.88-4.09-4.01-8.07-6.51-11.76-1.22-1.8-2.55-3.54-4-5.14-.95-1.06-1.71-1.99-2.45-3.08-3.04,2.21-6.38,4.09-9.55,6.07-3.33,2.09-6.63,4.24-9.84,6.54-6.55,4.68-12.76,9.88-18.56,15.57-11.35,11.14-21.25,23.86-29.84,37.5-11.24,17.84-20.44,37.04-28.52,56.7-4.04,9.81-7.83,19.74-11.48,29.72-3.4,9.33-6.46,18.85-10.28,28,1.26-.95,2.67-1.78,4.1-2.05.5-.09,1.01.43.7.97-1.15,1.98-3.15,3.48-4.81,4.96-1.72,1.53-3.39,3.13-4.93,4.86-2.67,3.02-5.11,6.38-6.85,10.11l.18.19-.08-.19c8.92-10.34,17.49-17.59,30.35-24.84v13.21l5.01-2.33c.52-6.14.59-12.33.83-18.49.3-7.7,1.22-15.67,4.26-22.73-1.37,1.3-2.59,2.79-3.53,4.44-.34.59-.66,1.2-.99,1.81.02.4.04.8.07,1.2.04.68-.67.9-1.11.6-.22.34-.44.67-.68.99-.17.22-.5.03-.5-.22,0-.98.16-1.94.46-2.88-1.06-5.01-.48-10.49.6-15.42,1.35-6.15,3.6-12.06,6.49-17.58,3.04-5.81,6.68-11.31,10.91-16.2,2.39-2.76,4.89-5.42,7.75-7.54-.61-.13-1.23-.31-1.79-.6h0l-2.7-.61,1.13-3.52h0c5.34-16.64,17.08-30.79,28.99-42.54,12.6-12.44,26.62-24.47,42.36-32.02.2-.1.44.11.39.3,20.57,51.63,26.97,95.02,23.07,142.53h0Zm-21.62,621.26c5.76-3.27,34.26-25.9,34.34-25.97,8.95-15.5,14.23-32.92,15.18-51.34.1-2.02,2.77-2.19,3.14-.44.03.02.06.05.08.07,1.59,1.69,2.58,3.58,3.39,5.64,1.15-16.25,2.38-32.77.85-49.01-.82-8.78-2.48-17.49-5.5-25.73-1.47-4.02-3.29-7.92-5.56-11.5-2.18-3.44-4.8-6.32-7.47-9.31-.28-.31-.31-.72-.19-1.07-.42-.06-.75-.6-.37-.97,1.95-1.9,5.07-2.4,7.65-2.07.9.11,1.81.28,2.65.67-2.87-6.65-6.51-12.72-11.2-18.23-5.07-5.96-10.65-11.49-15.24-17.9,7.37,12.18,18.38,30.29,18.38,30.29l-7.36,2.98c3.41,8.56,6,16.61,7.93,24.32-4.44,19.49-22.33,33.73-12.66,63.77,1.11-31.52,11.85-38.59,15.86-47.57,2.03,14.05,2.01,27.32,1,41.02-2.94,23.51-9.07,42.24-25.54,55l7.24-.51-14.32,23.67s-8.18,9.56-12.29,14.19h0Zm-367.24,51.03h398.64l15.34-94.24c1-2.85,1.89-5.75,2.66-8.71,1.87-7.19,2.97-14.62,3.24-22.08.1.29.22.58.35.88.73,1.63,1.6,3.03,2.52,4.51.52.84,1.94.33,1.59-.72-.09-.27-.18-.55-.28-.82,3.63-17.29,4.77-35.12,2.88-52.79-.95-8.93-2.77-17.81-6.11-26.09-2.91-7.23-7.31-14.81-13.28-19.66,1.54-.16,3.07-.58,4.64-.6,1.21-.01,2.98.27,4.31.82.16.4.31.8.46,1.2.24.62,1.17.59,1.16-.17-.09-8.31-4.42-15.24-9.25-21.42-5.16-6.61-11.23-12.32-16.39-18.94-5.71-7.31-9.88-16.06-13.02-24.92-1.7-4.79-3.02-9.74-4-14.75-.48-2.47-.89-4.97-1.19-7.48,0-.19,0-.38,0-.57-.24-10.61-2.76-20.95-3.55-31.49-.67-8.96.47-18.07.83-27.02.16-4.18.23-8.39-.2-12.56-.18-1.75-.36-4.14-1.19-5.93.07-.26.03-.57-.18-.84-.86-1.1-1.58-2.34-2.31-3.58.5.14,1.01.24,1.5.39,1.15.35,2.67.78,3.61,1.57.68.57,1.57-.31.97-1.03-.09-.11-.19-.22-.28-.33-1.82-8.21-6.26-15.63-9.31-23.36-1.54-3.91-2.89-7.88-3.87-12-.5-2.1-.86-4.24-1.1-6.39-.12-1.03-.23-2.06-.31-3.09-.08-.94-.33-1.21-.57-1.83,5.64-8.87,11.63-17.55,16.83-26.71,2.72-4.79,5.05-9.9,6.15-15.4.85-4.23.94-9.37-.69-13.53.09.09.18.18.26.27.34.38.69.76,1,1.16.3.37.94.94.98,1.04.11.23.42.06.37-.16.73-2.72,8.65-16.13-.99-27.91.33-.04.67-.09,1.01-.11.74-.06,1.81.05,2.22-.78-.16.07-.32.14-.49.21.24.07.44.17.64.32.25.19.52-.07.51-.34.08.1.17.2.26.29.2.2.53.11.6-.17.62-2.33-.74-4.61-1.69-6.64-.69-1.47-1.38-2.91-2.33-4.2-.08-.11-.18-.19-.29-.23,1.84-4.66,3.33-9.43,5.54-13.96,2.85-5.84,6.3-11.3,9.21-17.11,2.65-5.29,5.09-10.79,6.44-16.63.62-2.69.95-5.45.98-8.22.01-1.02.04-2.37-.09-3.7.1-.12.16-.28.18-.45.28-2.98-.42-6.15-.74-9.11-.41-3.77-.81-7.55-1.14-11.34-.63-7.29-.92-14.61-1.05-21.92-.25-14.7.3-29.4.67-44.09.38-14.66.54-29.35-.33-44-.67-11.23-2.23-22.35-4.01-33.43-2.49-15.5-5.6-30.99-10.55-45.84-2.36-7.07-5.19-14-8.85-20.42-1.58-2.78-3.41-5.38-5.41-7.84-1-1.23-2.1-2.37-3.24-3.46-.64-.61-1.23-.99-1.89-1.3.25-.31.03-.83-.41-.72-.29.07-.57.14-.85.22l-.25-.09c-.17-.06-.34.09-.36.26-4.31,1.31-8.54,3.68-12.38,6-4.41,2.66-8.64,5.62-12.74,8.8-8.01,6.2-15.42,13.24-22.25,20.86-13.78,15.36-25.04,33.13-34.66,51.69-7.75,14.96-14.44,30.54-20.53,46.35-3.01,7.81-5.87,15.69-8.66,23.59-2.77,7.84-5.63,15.7-7.83,23.75-.15.54.24.99.67,1.1-.15.13-.3.26-.44.38-2.11,1.86-4.1,3.85-5.97,5.99-3.28,3.76-6.09,8.07-7.47,13.03-23.88-.58-21.81-4.28-45.93,4.92v-.36l-2.45,1.31-2.45-1.31v.36c-24.12-9.21-22.05-5.5-45.93-4.92-1.38-4.96-4.19-9.27-7.47-13.03-1.87-2.14-3.86-4.12-5.96-5.99-.14-.13-.29-.25-.44-.38.43-.12.81-.56.67-1.1-2.2-8.05-5.06-15.91-7.83-23.75-2.79-7.9-5.65-15.78-8.66-23.59-6.08-15.8-12.78-31.39-20.53-46.35-9.62-18.56-20.88-36.33-34.66-51.69-6.84-7.62-14.25-14.66-22.25-20.86-4.1-3.17-8.33-6.13-12.74-8.8-3.84-2.32-8.08-4.69-12.38-6-.02-.17-.19-.32-.36-.26l-.25.09c-.28-.08-.57-.16-.85-.22-.44-.11-.66.41-.41.72-.66.31-1.25.69-1.89,1.3-1.14,1.09-2.24,2.23-3.24,3.46-2,2.46-3.82,5.06-5.41,7.84-3.66,6.42-6.49,13.35-8.85,20.42-4.95,14.84-8.06,30.33-10.55,45.84-1.78,11.08-3.34,22.2-4.01,33.43-.87,14.65-.71,29.34-.33,44,.38,14.69.92,29.39.67,44.09-.13,7.31-.41,14.63-1.05,21.92-.33,3.78-.73,7.56-1.14,11.34-.32,2.96-1.02,6.13-.74,9.11.02.17.08.33.18.45-.13,1.33-.11,2.68-.09,3.7.04,2.76.37,5.53.98,8.22,1.34,5.85,3.79,11.34,6.44,16.63,2.91,5.81,6.36,11.27,9.21,17.11,2.21,4.53,3.69,9.3,5.53,13.96-.11.05-.21.12-.29.23-.96,1.29-1.64,2.73-2.33,4.2-.95,2.02-2.3,4.31-1.69,6.64.07.28.41.37.61.17.09-.09.18-.19.26-.29,0,.27.26.53.51.34.2-.15.4-.25.64-.32-.16-.07-.32-.14-.49-.21.4.83,1.47.72,2.22.78.34.03.67.07,1.01.11-9.64,11.78-1.72,25.19-.99,27.91-.05.23.26.39.37.16.04-.1.69-.66.98-1.04.32-.4.67-.78,1-1.16.08-.09.17-.18.26-.27-1.63,4.16-1.54,9.29-.69,13.53,1.1,5.51,3.42,10.61,6.15,15.4,5.2,9.16,11.19,17.84,16.83,26.71-.24.62-.49.89-.57,1.83-.08,1.03-.19,2.06-.31,3.09-.25,2.15-.61,4.29-1.1,6.39-.97,4.12-2.32,8.09-3.87,12-3.05,7.72-7.49,15.15-9.31,23.36-.09.11-.18.22-.28.33-.6.72.29,1.6.97,1.03.94-.79,2.46-1.22,3.61-1.57.5-.15,1-.25,1.5-.39-.72,1.24-1.44,2.47-2.31,3.58-.22.27-.25.58-.18.84-.83,1.79-1.01,4.18-1.19,5.93-.43,4.17-.37,8.38-.2,12.56.35,8.95,1.5,18.06.83,27.02-.79,10.54-3.31,20.88-3.55,31.49,0,.19,0,.38,0,.57-.3,2.5-.71,5.01-1.19,7.48-.98,5.01-2.3,9.96-4,14.75-3.14,8.86-7.32,17.61-13.02,24.92-5.16,6.61-11.23,12.33-16.39,18.94-4.83,6.18-9.16,13.1-9.25,21.42,0,.76.93.79,1.16.17.15-.4.31-.8.46-1.2,1.33-.55,3.1-.83,4.31-.82,1.58.01,3.1.44,4.64.6-5.98,4.85-10.37,12.43-13.28,19.66-3.34,8.28-5.15,17.16-6.11,26.09-1.89,17.66-.75,35.49,2.88,52.79-.09.27-.18.54-.28.82-.34,1.04,1.07,1.55,1.6.72.93-1.48,1.79-2.88,2.52-4.51.13-.29.25-.58.35-.88.27,7.46,1.37,14.88,3.24,22.08.77,2.95,1.66,5.86,2.65,8.7l15.34,94.24h26.84Zm167.1-458.43c-5.61,8.43-11.78,11.37-19.83,11.9,10.59,3.19,18.19-.88,19.83-11.9h0Zm37.61,0c1.64,11.03,9.24,15.09,19.83,11.9-8.06-.54-14.22-3.47-19.83-11.9h0Zm-.91,11.84c4.28,6.39,10.21,6.67,15.86,1.56-5.17,2.04-9.88,2.04-15.86-1.56h0Zm-35.79,0c-5.98,3.59-10.69,3.6-15.86,1.56,5.65,5.11,11.59,4.83,15.86-1.56h0Zm17.9-146.82l1.25-4.52.98-20.9c-.75-.38-1.49-.75-2.23-1.09-.74.35-1.48.71-2.23,1.09l.98,20.9,1.25,4.52h0Zm175.78,100.03l-5.29-11.49,2.98,2.19c-3.74-11.08-10.54-18.05-23.08-24.32h0c11.92,12.6,14.59,22.25,17.85,36.35h0c1.04,3.29,1.66,6.27,1.84,9.51.01.28-.39.4-.5.14-.56-1.29-1.76-1.34-2.85-1.4,3.16,2.98,4.91,8.85,5.55,13.08.32,2.13.51,4.28.58,6.44.28-.79.55-1.58.79-2.38.82-2.79,1.56-5.68,2.09-8.56,1.02-5.55,1.3-11.27.48-16.88-.13-.92-.28-1.82-.43-2.69h0Zm-32.83-47.42l.08-.12-.08.12h0Zm-133.28,7.37c-1.36-10.15-2.11-20.3-1.78-30.57.32-10.07,2.04-19.85,3.19-29.82.03-.26-.34-.28-.41-.06-2.99,9.41-3.55,20.03-3.88,29.88-.34,10.15-.16,20.86,2.7,30.62.04.12.2.07.18-.05h0Zm189.85,16.53c.07.16.1.33.09.54-.07-.13-.14-.26-.21-.4.14.08.26.16.38.25-.09-.13-.18-.26-.26-.39h0Zm-375.29,23.52c-.15.88-.3,1.77-.43,2.69-.82,5.6-.54,11.33.48,16.88.53,2.87,1.27,5.77,2.09,8.56.23.8.5,1.59.79,2.38.07-2.16.25-4.31.58-6.44.64-4.23,2.39-10.09,5.55-13.08-1.09.06-2.29.11-2.85,1.4-.11.26-.52.13-.5-.14.18-3.24.81-6.22,1.84-9.52h0c3.25-14.1,5.93-23.74,17.85-36.34h0c-12.53,6.27-19.33,13.24-23.08,24.32l2.98-2.19-5.29,11.49h0Zm148.99,15.26l-1.01-13.87h0s-.62-8.5-.62-8.5h0s-.62-8.49-.62-8.49c-3.89-12.69-11.4-21.77-23.25-29.29,4.83,5.89,8.78,11.79,12.21,17.77-3.27-3.38-7.12-6.44-11.58-9.27,4.83,5.89,8.78,11.79,12.21,17.77-3.27-3.39-7.12-6.44-11.58-9.27,11.47,13.99,17.97,27.98,24.27,43.16h0Zm-116.16-62.68l-.08-.12.08.12h0Zm115.96,72.78c-.02-.15-.24-.16-.24,0-.44,10.18-13.59,22.45-25.7,18.98-8.81-2.52-13.58-12.74-17.61-20.13-.91-1.67-1.81-3.33-2.75-4.96h0s-.1-.16-.1-.16c-.23-.39-.46-.78-.69-1.16-2.1-3.68-3.78-7.82-5.68-11.61.01,1.08.07,2.13.16,3.17-2.09-2.72-4.04-5.67-6.08-8.37.31,1.57.71,3.07,1.17,4.52-.17-.15-.34-.29-.51-.44-2.64-2.6-5.12-5.52-7.67-8.15.4,1.19.84,2.34,1.32,3.45-9.18-5.9-18.25-9.13-28.75-10.28-3.78-.42-8.05-.45-11.53-2.2-1.8-.91-3.36-2.18-4.39-3.94-1.18-2-1.78-4.23-2.98-6.19-.16-.26-.58-.31-.78-.1h0s-.02.02-.02.02c-.03.04-.06.09-.07.14-4.97,9.55,7.87,17.88,16.45,20.69-3.3,14.52,5.1,28.97,18.78,35.27-8.34-9.51-12.75-18.52-11.41-30.56.11,3.46.91,6.82,2.25,10.04,3.15,7.59,9.25,14.17,16.32,18.3,2.74,1.6,5.4,2.74,8.55,3.2,3.15.46,6.33.66,9.51.89,4.25.31,9.98-.56,13.98,1.73l-23.12.25,24.99,3.83c14.86,14.94,39.09,3.87,36.6-16.26h0Zm17.33-65.41c-.02.12.14.18.18.05,2.86-9.75,3.04-20.47,2.7-30.62-.33-9.85-.89-20.48-3.88-29.88-.07-.22-.44-.2-.41.06,1.15,9.97,2.87,19.75,3.19,29.82.33,10.27-.42,20.41-1.78,30.57h0Zm-189.85,16.53c-.07.16-.1.33-.09.54.07-.13.14-.26.21-.4-.14.08-.26.16-.38.25.09-.13.17-.26.26-.39Z"/><path class="cls-5" d="m651.96,265.63c17.21,16.69,36.77,49.49,50.88,49.32-16.78-10.13-29.77-41.71-50.88-49.32Z"/><path class="cls-5" d="m629.53,162.06c2.05,18.27-2.38,47.23,6.06,54.01-4.99-14.18,2.73-39.2-6.06-54.01Z"/><path class="cls-10" d="m342.01,171.92c2.6,34,7.79,68.27,17.91,102.02l-12.54-6.52c-7.09-15.6-10.82-59.36-5.37-95.49Z"/><path class="cls-2" d="m614.48,369.86c-2.03-.4-4,.91-4.4,2.93-.4,2.02.92,3.99,2.94,4.39,2.03.4,4-.91,4.4-2.93.4-2.02-.91-3.99-2.94-4.39Z"/><path class="cls-4" d="m609.81,382.82c2.05,2.22,4.8,3.84,8,4.47,8.03,1.6,15.84-3.6,17.44-11.61.64-3.2.19-6.37-1.1-9.12l-.03.19c3.68,11.26-5.67,19.61-13.7,18.01-5.89-1.17-8.81-6.95-10.6-1.94Z"/><path class="cls-2" d="m448.21,369.86c2.03-.4,4,.91,4.4,2.93.4,2.02-.91,3.99-2.94,4.39-2.03.4-4-.91-4.4-2.93-.4-2.02.91-3.99,2.94-4.39Z"/><path class="cls-4" d="m452.88,382.82c-2.05,2.22-4.8,3.84-8,4.47-8.03,1.6-15.84-3.6-17.44-11.61-.64-3.2-.19-6.37,1.1-9.12l.04.19c-3.68,11.26,5.66,19.61,13.7,18.01,5.89-1.17,8.81-6.95,10.6-1.94Z"/><path class="cls-10" d="m570.25,411.86c11.07,5.82,10.28,17.68,16.39,22-8.7-1.94-10.93-14.66-16.39-22h0Zm-77.8,0c-11.07,5.82-10.28,17.68-16.39,22,8.7-1.94,10.93-14.66,16.39-22Z"/><path class="cls-5" d="m715.26,69.83c23.51,52.48,9.96,121.12,8.63,167.78-2.88-55.93.72-106.68-8.63-167.78Z"/><path class="cls-5" d="m704.98,86.74c20.48,45.73,8.68,105.54,7.52,146.2-2.51-48.73.63-92.96-7.52-146.2Z"/><path class="cls-5" d="m410.72,412.67c11.57,14.16,37.6,11.72,36.01,37.31-6.07-18.39-26.38-19.91-36.01-37.31Z"/><path class="cls-5" d="m685.73,428.08l3.62-6.08c6.21,7.2,4.6,18.54,9.97,24.41-6.9-.61-9.06-12.22-13.59-18.33Z"/><path class="cls-7" d="m682.92,464.74c-2.1-4.1-5.85-7.57-3.57-14.48-7.02.59-12.27.98-19.63,4.45,7.06-6.77,13.74-13.71,27.54-17.26h0c.82-.55,1.71-1.08,2.69-1.58.59,18.35,12.84,37.01,18.21,42.89-6.9-.61-20.7-7.91-25.23-14.02Z"/><path class="cls-6" d="m676.03,398.25c2.09,13.48-25.84,23.49-42.85,36.17l10.28-1.88c-16.6,10.14-17.47,23.94-21.35,38.82-5.32-10.28-2.88-20.56-4.31-30.84l3.33,3.67h0c-.37-25.47,43.8-21.74,54.89-45.94Z"/></g><g><rect class="cls-3" x="86.06" y="709.54" width="890.57" height="192.28"/><path d="m968.13,718.04v175.28H94.56v-175.28h873.57m17-17H77.56v209.28h907.57v-209.28h0Z"/></g><g id="COMMIT"><path class="cls-1" d="m262.08,772.15h-98.34v71.27h98.34v27.25h-99.56c-7.22,0-13.34-2.5-18.34-7.51-5.01-5.01-7.51-11.12-7.51-18.34v-74.06c0-7.22,2.5-13.33,7.51-18.34,5.01-5.01,11.12-7.51,18.34-7.51h99.56v27.25Z"/><path class="cls-1" d="m310.98,744.9h74.06c7.1,0,13.19,2.53,18.25,7.6,5.07,5.07,7.6,11.15,7.6,18.25v74.06c0,7.1-2.53,13.19-7.6,18.25-5.07,5.07-11.15,7.6-18.25,7.6h-74.06c-7.22,0-13.33-2.5-18.34-7.51-5.01-5.01-7.51-11.12-7.51-18.34v-74.06c0-7.22,2.5-13.33,7.51-18.34,5.01-5.01,11.12-7.51,18.34-7.51Zm1.22,27.25v71.27h71.27v-71.27h-71.27Z"/><path class="cls-1" d="m505.92,795.73l42.45-50.83h28.12v125.77h-27.25v-84.37l-43.32,51.7-43.49-51.53v84.19h-27.08v-125.77h27.95l42.62,50.83Z"/><path class="cls-1" d="m673.25,795.73l42.45-50.83h28.12v125.77h-27.25v-84.37l-43.32,51.7-43.49-51.53v84.19h-27.08v-125.77h27.95l42.62,50.83Z"/><path class="cls-1" d="m770.2,870.66v-125.77h27.25v125.77h-27.25Z"/><path class="cls-1" d="m810.89,744.9h125.77v27.25h-49.26v98.52h-27.25v-98.52h-49.26v-27.25Z"/></g></g></g></svg>