<?xml version="1.0" encoding="UTF-8"?><svg id="Layer_2" xmlns="http://www.w3.org/2000/svg" viewBox="0 0 254.89 254.89"><defs><style>.cls-1{fill:#fff;stroke-width:0px;}</style></defs><g id="Layer_1-2"><g id="WCL_Icon"><g id="Swords"><path class="cls-1" d="m75.5,212.45c1.63,11.26-3.26,16.3-3.26,16.3l-15.63-15.63-33.11,33.26-15.51-15.51,33.26-33.11-15.63-15.63s5.04-4.89,16.3-3.26l33.59,33.59Z"/><path class="cls-1" d="m51.97,181.73l20.59,20.59,15.41-14.52s-12.44-7.41-21.33-21.63l-14.67,15.56Z"/><path class="cls-1" d="m163.82,63.44l40.22-44.07,39.07-8.48-8.48,39.07-43.85,40.44s-8.3-18.81-26.96-26.96Z"/><path class="cls-1" d="m178.9,212.45c-1.63,11.26,3.26,16.3,3.26,16.3l15.63-15.63,33.11,33.26,15.51-15.51-33.26-33.11,15.63-15.63s-5.04-4.89-16.3-3.26l-33.59,33.59"/><path class="cls-1" d="m181.77,202.4l20.59-20.59-14.52-15.41s-7.41,12.44-21.63,21.33l15.56,14.67Z"/><path class="cls-1" d="m63.48,90.54L19.4,50.32,10.92,11.25l39.07,8.48,40.44,43.85s-18.81,8.3-26.96,26.96Z"/></g><g id="Inner_Circle_Element"><path class="cls-1" d="m172.33,134.56l-12.44,35.56-9.11-30.44-11.78,12.89-8.89-26.21-10.87,7.54-8.24-29.56-20.22,62.44-10.67-32.22h-19.94c3.62,33.9,32.31,60.3,67.16,60.3s63.54-26.4,67.16-60.3h-22.16Z"/><path class="cls-1" d="m85.44,125.22l5.33,18.44,20.44-62.67,12.22,41.78,10.44-8,7.78,24.67,12.44-12.15,6.44,20.37,7.11-22.44h27.17c-1.1-36.35-30.89-65.48-67.5-65.48s-66.4,29.13-67.5,65.48h25.61Z"/></g><path class="cls-1" d="m233.35,56.49l-17.93,16.53c9.8,15.81,15.46,34.45,15.46,54.42,0,17.15-4.18,33.33-11.57,47.57,7.79.58,11.67,4.06,12.19,4.56l2.73,2.65-15.66,15.66,8.76,8.72c17.86-22.44,27.56-50.06,27.56-79.17,0-25.65-7.53-50.14-21.53-70.95Z"/><path class="cls-1" d="m73.18,39.36c15.78-9.74,34.36-15.36,54.26-15.36s38.12,5.51,53.79,15.07l16.44-18.01C177.02,7.36,152.8,0,127.44,0s-50.02,7.49-70.8,21.43l16.54,17.93Z"/><path class="cls-1" d="m36.05,197.89l-15.66-15.66,2.73-2.65c.52-.5,4.47-4.06,12.44-4.58-7.38-14.24-11.56-30.41-11.56-47.55,0-19.77,5.55-38.25,15.17-53.96l-18.01-16.44C7.4,77.74,0,102.02,0,127.44c0,29.05,9.66,56.6,27.44,79.02l8.61-8.57Z"/><path class="cls-1" d="m197.89,218.57l-15.66,15.66-2.65-2.73c-.5-.51-3.98-4.39-4.56-12.18-14.24,7.39-30.42,11.57-47.57,11.57s-33.52-4.23-47.83-11.7c-.55,7.89-4.07,11.8-4.57,12.32l-2.65,2.73-15.66-15.66-8.6,8.64c22.47,17.93,50.14,27.68,79.31,27.68s56.72-9.7,79.17-27.56l-8.72-8.76Z"/></g></g></svg>